<svg id="Layer_1" data-name="Layer 1" xmlns="http://www.w3.org/2000/svg" viewBox="0 0 500 500"><defs><style>.cls-1{fill:#eff6f9;}.cls-2{fill:#ffe1cc;}.cls-3{fill:#efd1bd;}.cls-4{fill:#272223;}.cls-5{fill:#00aeef;}.cls-6{fill:#ffc7b6;}.cls-7{fill:#5c5d64;}.cls-8{fill:#dc9b80;}.cls-9{fill:#ec008c;}.cls-10{fill:#ed54b6;}.cls-11{opacity:0.37;}.cls-12{fill:#bbf2ff;}</style></defs><title>Tawk_Avatar-Female</title><path class="cls-1" d="M250.43,494.43a177,177,0,1,0-177-177,177,177,0,0,0,177,177"/><path class="cls-2" d="M205.57,372.28v-32l44.86,32,44.86-32v32c0,13.86,14.11,13.86,14.11,13.86l-59,58.72-59-58.72S205.57,386.14,205.57,372.28Z"/><path class="cls-3" d="M205.57,340.28l44.86,32,44.86-32v32c0,.45,0,.85.08,1.27-24.59,11-44.94,12-44.94,12s-20.35-.93-44.94-12c0-.42.08-.82.08-1.27Z"/><circle class="cls-4" cx="246.85" cy="57.54" r="51.97" transform="translate(-6.24 43.66) rotate(-9.98)"/><path class="cls-5" d="M246.85,60.63a109.46,109.46,0,0,0-49.69,12.19,49.32,49.32,0,0,0,4.19,11,95.21,95.21,0,0,1,45.5-11.5h0a95.2,95.2,0,0,1,45.49,11.5,50.2,50.2,0,0,0,4.22-11.08A109.48,109.48,0,0,0,246.85,60.63Z"/><path class="cls-4" d="M246.85,68.57h0c-63.19-6.19-165,80-156.54,214.85.32,5,78.43,48.14,156.54,48.14s156.21-43.1,156.53-48.14C411.85,148.61,310,62.38,246.85,68.57Z"/><ellipse class="cls-6" cx="133.44" cy="246.58" rx="30.72" ry="35.62"/><ellipse class="cls-6" cx="360.25" cy="246.58" rx="30.72" ry="35.62"/><path class="cls-2" d="M133.44,143.15V282.26c0,17.7,51.52,92.22,111.64,97,44.47,3.5,115.17-68.59,115.17-97V143.15Z"/><path class="cls-7" d="M320.75,239.58c1.37,1.2,3.11,1.6,4.17.86l5.61-3.95c1.22-.86,1.06-2.93-.37-4.62s-3.57-2.37-4.79-1.51l-5.62,3.95c-1.22.86-1.06,2.93.37,4.62A6.48,6.48,0,0,0,320.75,239.58Z"/><path class="cls-7" d="M276.4,241.64a3.47,3.47,0,0,0,2.5-1c.82-.83,20-19.75,42-.53a3.5,3.5,0,1,0,4.59-5.28c-27.12-23.61-51.37.66-51.61.91a3.5,3.5,0,0,0,.06,4.95A3.46,3.46,0,0,0,276.4,241.64Z"/><path class="cls-7" d="M172.94,239.58c-1.37,1.2-3.11,1.6-4.16.86l-5.62-3.95c-1.22-.86-1.06-2.93.37-4.62s3.57-2.37,4.79-1.51l5.62,3.95c1.22.86,1.06,2.93-.37,4.62A6.48,6.48,0,0,1,172.94,239.58Z"/><path class="cls-7" d="M217.29,241.64a3.47,3.47,0,0,1-2.5-1c-.82-.83-19.94-19.75-42-.53a3.5,3.5,0,1,1-4.59-5.28c27.12-23.61,51.37.66,51.61.91a3.5,3.5,0,0,1-.06,4.95A3.46,3.46,0,0,1,217.29,241.64Z"/><path class="cls-8" d="M245.47,339.93a57.65,57.65,0,0,0,31.19-9.46,4,4,0,0,0-4.79-6.49c-1.07.77-24.88,17.68-52-.13a4,4,0,1,0-4.42,6.74A54,54,0,0,0,245.47,339.93Z"/><path class="cls-6" d="M270.68,286.23c0-2.6-3.64-5-7.67-6.72a37.06,37.06,0,0,1-12.85-9.94c-2.6-3-5.1-2.63-7.51.46a33.73,33.73,0,0,1-12.59,9.64c-3.76,1.74-7.05,4-7.05,6.56a9.79,9.79,0,0,0,9.26,9.77,16,16,0,0,0,29.15,0A9.79,9.79,0,0,0,270.68,286.23Z"/><path class="cls-4" d="M217.49,209.8a2.84,2.84,0,0,1-1-.07c-.3-.07-30-7.15-47.4,3.52-2,1.23-4.45-.24-5.5-3.28s-.28-6.48,1.71-7.71c19.42-11.94,50.43-4.53,51.74-4.21,2.24.55,3.94,3.61,3.78,6.84C220.66,207.6,219.26,209.57,217.49,209.8Z"/><path class="cls-4" d="M275,209.8a2.86,2.86,0,0,0,1-.07c.29-.07,30-7.15,47.39,3.52,2,1.23,4.45-.24,5.5-3.28s.29-6.48-1.7-7.71c-19.42-11.94-50.43-4.53-51.74-4.21-2.24.55-3.94,3.61-3.79,6.84C271.8,207.6,273.19,209.57,275,209.8Z"/><rect class="cls-6" x="234.13" y="245.44" width="23.77" height="43.38" rx="11.31" ry="11.31"/><circle class="cls-6" cx="313.44" cy="282.2" r="12.01"/><circle class="cls-6" cx="180.25" cy="282.2" r="12.01"/><path class="cls-4" d="M318.93,137.27l.27.91L173.66,140l.09-.32-42.23,3.51L133,211c4.71-44.64,33.65-46.73,33.65-46.73l5.47-19,10.42,19H311.13l10.2-18.6,5.08,17.74s29.13,2.95,33.84,47.59l3.38-71.32Z"/><path class="cls-9" d="M393.4,421.33a178,178,0,0,1-44,42.63V402.87Z"/><path class="cls-9" d="M107.46,422.18l44-19.09v61.29A178.05,178.05,0,0,1,107.46,422.18Z"/><path class="cls-9" d="M184.09,388.92h7.14l19.05,21.52c6.56,7.41,34.27,3.74,39.84,3.74,14.63,0,29.25,8.22,39.84-3.74L309,388.92h7.14l33.26,13.95V464a177,177,0,0,1-198,.42V403.09Z"/><path class="cls-9" d="M251.07,414.18l43.13,16.59,24.85-43.12s-7.59-16.22-24.06-15.37v20.29S289.1,409,251.07,414.18Z"/><path class="cls-9" d="M249.16,414.18,206,430.77l-24.86-43.12s7.59-16.22,24.06-15.37v20.29S211.13,409,249.16,414.18Z"/><path class="cls-10" d="M249.16,414.18l69.77,66.36-7,2.93-69.5-68.74A12.79,12.79,0,0,1,249.16,414.18Z"/><g class="cls-11"><path class="cls-12" d="M158.24,211.92s-2.65,5.25-2.4,20.13c.12,6.86.64,14.21,1.16,20.13a12.77,12.77,0,0,0,13,11.62l46.73-1.05A12.78,12.78,0,0,0,229.24,250v-24.1s-1.07-13.58-23.25-15.2S158.24,211.92,158.24,211.92Z"/></g><g class="cls-11"><path class="cls-12" d="M330.13,211.92s2.65,5.25,2.39,20.13c-.11,6.86-.63,14.21-1.15,20.13a12.77,12.77,0,0,1-13,11.62l-46.73-1.05A12.79,12.79,0,0,1,259.12,250v-24.1s1.08-13.58,23.26-15.2S330.13,211.92,330.13,211.92Z"/></g><path class="cls-7" d="M229.69,234.07a2,2,0,0,1-2-2c0-.52-.14-12.39-9.56-16.24-10.06-4.09-25.81-4.71-34.3-4.71-10.06,0-22.45.92-25.87,2.93l-.53.32-.26.55a2,2,0,0,1-1.81,1.15,1.9,1.9,0,0,1-.41,0,2,2,0,0,1-1.58-2.37,4.77,4.77,0,0,1,2.76-3.18c4-2.17,13.69-3.46,25.82-3.46,15.33,0,30.13,2,37.7,5.08,12,4.9,12.07,19.37,12.07,20a2,2,0,0,1-2,2Z"/><path class="cls-7" d="M258.17,234.07a2,2,0,0,1-2-2c0-.61.05-15.08,12.07-20,7.58-3.09,22.37-5.08,37.7-5.08,12.13,0,21.78,1.29,25.82,3.46a4.75,4.75,0,0,1,2.76,3.18,2,2,0,0,1-1.58,2.37,1.75,1.75,0,0,1-.4,0,2,2,0,0,1-1.82-1.15l-.26-.55-.53-.32c-3.42-2-15.8-2.93-25.87-2.93-8.49,0-24.24.61-34.29,4.71-9.56,3.9-9.57,16.11-9.56,16.24a2,2,0,0,1-2,2Z"/><path class="cls-7" d="M230.47,228.48a2,2,0,0,1-2-2,1.93,1.93,0,0,1,1.88-2l27.84.27a2,2,0,0,1,2,2,2,2,0,0,1-2,2Z"/></svg>