<svg id="Layer_1" data-name="Layer 1" xmlns="http://www.w3.org/2000/svg" viewBox="0 0 500 500"><defs><style>.cls-1{fill:#eff6f9;}.cls-2{fill:#e5a193;}.cls-3{fill:#cc867a;}.cls-4{fill:#ef4136;}.cls-5{fill:#ff6864;}.cls-6{fill:#3c2415;}.cls-7{fill:#272223;}.cls-8{fill:#ea9081;}.cls-9{fill:#ce7d6f;}.cls-10{fill:#fbb040;}.cls-11{fill:#d84456;}</style></defs><title>Tawk_Avatar-Female</title><path class="cls-1" d="M250,477.72a177,177,0,1,1,177-177,177,177,0,0,1-177,177"/><path class="cls-2" d="M294.86,355.57v-32l-44.86,32-44.86-32v32c0,13.86-14.11,13.86-14.11,13.86l59,58.72,59-58.72S294.86,369.43,294.86,355.57Z"/><path class="cls-3" d="M294.86,323.56l-44.86,32-44.86-32v32c0,.45,0,.85-.08,1.27,24.59,11,44.94,12,44.94,12s20.35-.93,44.94-12c0-.42-.08-.82-.08-1.27Z"/><path class="cls-4" d="M250,477.72a176.7,176.7,0,0,0,142.66-72.25L316,372.21h-7.14l-19.05,21.52a53.21,53.21,0,0,1-79.68,0l-19-21.52H184l-77.25,32.41A176.71,176.71,0,0,0,250,477.72"/><path class="cls-5" d="M305.44,365.14l-19,17.87a53.2,53.2,0,0,1-72.92,0l-19-17.87L184,372.21l21.41,21.57a62.87,62.87,0,0,0,89.24,0L316,372.21Z"/><path class="cls-6" d="M397.91,181c0-87.65-66.56-158.71-148.66-158.71h0c-82.11,0-148.67,71.06-148.67,158.71v42.73c0,90.78,116.86,127.64,116.86,127.64L185.06,224.93l125.73,10.32L281.05,351.36S397.91,314.5,397.91,223.72V186.67l-.2-.15ZM223.37,115.74l2.41-39.07,5.79,43.83Z"/><ellipse class="cls-3" cx="136.59" cy="208.08" rx="30.72" ry="35.62"/><ellipse class="cls-3" cx="363.41" cy="208.08" rx="30.72" ry="35.62"/><path class="cls-2" d="M217.85,76.67c-44.88,0-81.26,44.73-81.26,89.61v82.38c0,62.63,51.53,105.74,111.64,110.48,44.48,3.51,115.18-47.85,115.18-110.48v-97a75,75,0,0,0-75-75Z"/><path class="cls-7" d="M218.68,212.94a4,4,0,0,1-4-3.35c-.69-4-5.15-11.61-17.06-11.61-15.06,0-18.14,10.35-18.26,10.8a4,4,0,0,1-7.8-2.05c1.5-5.82,8.87-16.81,26.06-16.81,15,0,23.49,9.48,25,18.3a4,4,0,0,1-3.28,4.66A4.23,4.23,0,0,1,218.68,212.94Z"/><path class="cls-7" d="M191.65,198.52a4,4,0,0,1-3.9-3.11l-2.25-9.9a4,4,0,0,1,7.8-1.77l2.25,9.89a4,4,0,0,1-3,4.79A3.92,3.92,0,0,1,191.65,198.52Z"/><path class="cls-7" d="M202.53,197.76a3.92,3.92,0,0,1-.89-.1,4,4,0,0,1-3-4.79l2.25-9.89a4,4,0,0,1,7.81,1.77l-2.26,9.9A4,4,0,0,1,202.53,197.76Z"/><path class="cls-7" d="M281.32,212.94a4,4,0,0,0,4-3.35c.69-4,5.15-11.61,17.06-11.61,15.06,0,18.14,10.35,18.26,10.8a4,4,0,0,0,7.8-2.05c-1.5-5.82-8.87-16.81-26.06-16.81-15,0-23.49,9.48-25,18.3a4,4,0,0,0,4,4.72Z"/><path class="cls-7" d="M308.35,198.52a4,4,0,0,0,3.9-3.11l2.25-9.9a4,4,0,0,0-7.8-1.77l-2.25,9.89a4,4,0,0,0,3,4.79A3.92,3.92,0,0,0,308.35,198.52Z"/><path class="cls-7" d="M297.47,197.76a3.92,3.92,0,0,0,.89-.1,4,4,0,0,0,3-4.79L299.12,183a4,4,0,0,0-7.8,1.77l2.25,9.9A4,4,0,0,0,297.47,197.76Z"/><path class="cls-8" d="M273.49,242.17c0-2.57-3.59-4.9-7.56-6.63a36.41,36.41,0,0,1-12.66-9.79c-2.57-2.95-5-2.59-7.4.45a33.4,33.4,0,0,1-12.42,9.51c-3.7,1.71-6.94,4-6.94,6.46a9.65,9.65,0,0,0,9.12,9.63,15.75,15.75,0,0,0,28.74,0A9.65,9.65,0,0,0,273.49,242.17Z"/><path class="cls-7" d="M220.64,171.3a3.08,3.08,0,0,1-1-.06c-.29-.08-30-7.16-47.39,3.51-2,1.23-4.45-.24-5.5-3.28s-.28-6.48,1.71-7.7c19.41-12,50.42-4.54,51.73-4.21,2.24.55,3.94,3.61,3.79,6.83C223.81,169.1,222.42,171.07,220.64,171.3Z"/><path class="cls-7" d="M278.12,171.3a3.07,3.07,0,0,0,1-.06c.3-.08,30-7.16,47.4,3.51,2,1.23,4.45-.24,5.5-3.28s.28-6.48-1.71-7.7c-19.42-12-50.42-4.54-51.74-4.21-2.24.55-3.93,3.61-3.78,6.83C275,169.1,276.35,171.07,278.12,171.3Z"/><path class="cls-9" d="M250.47,297.1a57.46,57.46,0,0,1-31.18-9.47,4,4,0,0,1,4.78-6.49c1.07.78,24.88,17.69,52-.12a4,4,0,1,1,4.42,6.74A54,54,0,0,1,250.47,297.1Z"/><rect class="cls-8" x="238.28" y="201.1" width="23.43" height="42.76" rx="11.31" ry="11.31"/><path class="cls-6" d="M229.13,71.57,208.79,72s.07.2.22.57l-55.34.78-39.92,87.93C172.82,168,208.13,140,227.89,113.6Z"/><path class="cls-6" d="M341.5,69.19,229.13,71.57,235.56,112c25.39,26.85,71.62,56.18,150.07,49.33Z"/><path class="cls-10" d="M184,372.21S192.81,454,316,465c0,0-35.68,17.34-86.9,11.51,0,0-60.11-20.58-75.16-91.7C154,384.8,167.7,369.75,184,372.21Z"/><circle class="cls-11" cx="250" cy="172.01" r="8.62"/></svg>