<svg id="Layer_1" data-name="Layer 1" xmlns="http://www.w3.org/2000/svg" viewBox="0 0 500 500"><defs><style>.cls-1{fill:#eff6f9;}.cls-2{fill:#723a1e;}.cls-3{fill:#ae8162;}.cls-4{fill:#9b6b4b;}.cls-5{fill:#ee38ab;}.cls-6{fill:#d82a9e;}.cls-7{fill:#9b6c4c;}.cls-8{fill:#272223;}.cls-9{fill:#dc9b80;}</style></defs><title>Tawk_Avatar-Female</title><path class="cls-1" d="M250,476.24a177,177,0,1,1,177-177,177,177,0,0,1-177,177"/><path class="cls-2" d="M249.69,23.76h0A134.19,134.19,0,0,1,383.88,158V353a45.42,45.42,0,0,1-45.42,45.42H160.92A45.42,45.42,0,0,1,115.5,353V158A134.19,134.19,0,0,1,249.69,23.76Z"/><path class="cls-2" d="M95.06,340.4H404.32a0,0,0,0,1,0,0v0a58,58,0,0,1-58,58H153.06a58,58,0,0,1-58-58v0a0,0,0,0,1,0,0Z"/><path class="cls-3" d="M294.86,354.09v-32l-44.86,32-44.86-32v32C205.14,368,191,368,191,368l59,58.72L309,368S294.86,368,294.86,354.09Z"/><path class="cls-4" d="M294.86,322.08l-44.86,32-44.86-32v32c0,.45,0,.84-.08,1.26,24.59,11,44.94,12,44.94,12s20.35-.94,44.94-12c0-.42-.08-.81-.08-1.26Z"/><path class="cls-5" d="M250,476.24A176.7,176.7,0,0,0,392.66,404L316,370.72h-7.14l-19.05,21.53a53.21,53.21,0,0,1-79.68,0l-19-21.53H184l-77.25,32.41A176.69,176.69,0,0,0,250,476.24"/><path class="cls-6" d="M305.44,363.66l-19,17.86a53.2,53.2,0,0,1-72.92,0l-19-17.86L184,370.72l21.41,21.58a62.87,62.87,0,0,0,89.24,0L316,370.72Z"/><ellipse class="cls-7" cx="136.28" cy="226.66" rx="30.72" ry="35.62"/><ellipse class="cls-7" cx="363.1" cy="226.66" rx="30.72" ry="35.62"/><path class="cls-3" d="M137.72,135.45l-1.44,126.82c0,17.7,51.53,92.22,111.64,97,44.48,3.5,115.18-68.59,115.18-97l1.43-126.82Z"/><path class="cls-4" d="M273.52,260.18c0-2.6-3.64-5-7.67-6.72A37,37,0,0,1,253,243.52c-2.61-3-5.11-2.63-7.52.46a33.57,33.57,0,0,1-12.59,9.64c-3.75,1.74-7.05,4-7.05,6.56a9.79,9.79,0,0,0,9.26,9.77,16,16,0,0,0,29.16,0A9.79,9.79,0,0,0,273.52,260.18Z"/><path class="cls-8" d="M220.33,189.88a3.08,3.08,0,0,1-1-.06c-.29-.07-30-7.16-47.39,3.51-2,1.23-4.45-.24-5.5-3.27s-.29-6.49,1.7-7.71c19.42-11.95,50.43-4.53,51.74-4.21,2.24.55,3.94,3.61,3.79,6.83C223.5,187.68,222.11,189.65,220.33,189.88Z"/><path class="cls-8" d="M277.81,189.88a3.07,3.07,0,0,0,1-.06c.3-.07,30-7.16,47.4,3.51,2,1.23,4.45-.24,5.5-3.27s.28-6.49-1.71-7.71c-19.42-11.95-50.43-4.53-51.74-4.21-2.24.55-3.93,3.61-3.78,6.83C274.64,187.68,276,189.65,277.81,189.88Z"/><path class="cls-9" d="M250.16,315.68A57.42,57.42,0,0,1,219,306.21a4,4,0,0,1,4.78-6.49c1.07.78,24.88,17.69,52-.12a4,4,0,1,1,4.42,6.74A54,54,0,0,1,250.16,315.68Z"/><path class="cls-4" d="M248.86,262.77h0a10,10,0,0,1-10-10V229.38a10,10,0,0,1,10-10h0a10,10,0,0,1,10,10v23.39A10,10,0,0,1,248.86,262.77Z"/><path class="cls-2" d="M175.59,135.45l-2.52,20.29S144.42,153,136.86,191l-2.65-59.82Z"/><path class="cls-2" d="M325.25,135.45l.55.6-.13-.6,39.5-.79L364,191c.18-8.45-.1.06-.1,0-.05-.44-.1-.88-.16-1.31-3.23-25.63-25.67-33.92-51.5-33.92H185.56l-11.12-20.29Z"/><rect class="cls-2" x="133.63" y="100.45" width="232.12" height="35.82"/><path class="cls-8" d="M221.78,229.1a3.6,3.6,0,0,1-3.54-3c-.62-3.57-4.59-10.34-15.21-10.34-13.43,0-16.17,9.22-16.27,9.62a3.62,3.62,0,0,1-4.4,2.52,3.58,3.58,0,0,1-2.56-4.35c1.34-5.18,7.91-15,23.23-15,13.38,0,20.93,8.46,22.29,16.31a3.58,3.58,0,0,1-2.93,4.15A3.15,3.15,0,0,1,221.78,229.1Z"/><path class="cls-8" d="M197.68,216.25a3.55,3.55,0,0,1-3.47-2.78l-2-8.82a3.56,3.56,0,0,1,7-1.58l2,8.82a3.56,3.56,0,0,1-2.68,4.27A3.7,3.7,0,0,1,197.68,216.25Z"/><path class="cls-8" d="M207.38,215.57a3.57,3.57,0,0,1-3.48-4.36l2-8.82a3.56,3.56,0,1,1,7,1.59l-2,8.82A3.57,3.57,0,0,1,207.38,215.57Z"/><path class="cls-8" d="M277.6,229.1a3.6,3.6,0,0,0,3.54-3c.62-3.57,4.59-10.34,15.21-10.34,13.43,0,16.16,9.22,16.27,9.62a3.6,3.6,0,0,0,7-1.83c-1.34-5.18-7.91-15-23.23-15-13.38,0-20.94,8.46-22.29,16.31A3.58,3.58,0,0,0,277,229,3.15,3.15,0,0,0,277.6,229.1Z"/><path class="cls-8" d="M301.7,216.25a3.57,3.57,0,0,0,3.47-2.78l2-8.82a3.56,3.56,0,0,0-6.95-1.58l-2,8.82a3.56,3.56,0,0,0,2.68,4.27A3.7,3.7,0,0,0,301.7,216.25Z"/><path class="cls-8" d="M292,215.57a3.57,3.57,0,0,0,3.48-4.36l-2-8.82a3.57,3.57,0,0,0-7,1.59l2,8.82A3.57,3.57,0,0,0,292,215.57Z"/><path class="cls-5" d="M328.29,97.94a89.63,89.63,0,0,0-157.2,0,129.89,129.89,0,0,1,157.2,0Z"/></svg>