<svg id="Layer_1" data-name="Layer 1" xmlns="http://www.w3.org/2000/svg" viewBox="0 0 500 500"><defs><style>.cls-1{fill:#eff6f9;}.cls-2{fill:#ae8162;}.cls-3{fill:#9b6b4b;}.cls-4{fill:#fbb040;}.cls-5{fill:#272223;}.cls-6{fill:#9b6c4c;}.cls-7{fill:#3c2415;}.cls-8{fill:#ed1c24;}.cls-9{fill:#e6e7e8;}.cls-10{fill:#dc9b80;}</style></defs><title>Tawk_Avatar-Female</title><path class="cls-1" d="M251.38,485.1a177,177,0,1,1,177-177,177,177,0,0,1-177,177"/><path class="cls-2" d="M296.24,363V331l-44.86,32-44.86-32v32c0,13.86-14.11,13.86-14.11,13.86l59,58.72,59-58.72S296.24,376.81,296.24,363Z"/><path class="cls-3" d="M296.24,331l-44.86,32-44.86-32v32c0,.45-.05.85-.08,1.27,24.59,11,44.94,12,44.94,12s20.35-.94,44.94-12c0-.42-.08-.82-.08-1.27Z"/><path class="cls-4" d="M251.38,485.1A176.7,176.7,0,0,0,394,412.85l-76.63-33.26h-7.14l-19,21.52a53.21,53.21,0,0,1-79.68,0l-19-21.52h-7.14L108.1,412a176.71,176.71,0,0,0,143.28,73.1"/><path class="cls-5" d="M237.56,259a22.89,22.89,0,0,0-13.3-42.28,22.89,22.89,0,0,0-31.6-31.08A22.89,22.89,0,0,0,150.17,173a22.89,22.89,0,0,0-43.43,8.81A22.89,22.89,0,0,0,72.52,210a22.89,22.89,0,0,0-17,40.94,22.89,22.89,0,0,0,4.22,44.12,22.9,22.9,0,0,0,24.44,37,22.9,22.9,0,0,0,34.51,24.85,22.89,22.89,0,0,0,42.48-2,22.89,22.89,0,0,0,40.66-17.64,22.89,22.89,0,0,0,27.61-34.67A22.9,22.9,0,0,0,237.56,259Z"/><path class="cls-5" d="M446.34,259A22.89,22.89,0,0,0,433,216.72a22.89,22.89,0,0,0-31.59-31.08A22.89,22.89,0,0,0,359,173a22.89,22.89,0,0,0-43.44,8.81A22.89,22.89,0,0,0,281.3,210a22.89,22.89,0,0,0-17,40.94,22.89,22.89,0,0,0,4.22,44.12A22.89,22.89,0,0,0,293,332a22.89,22.89,0,0,0,34.5,24.85,22.9,22.9,0,0,0,42.49-2,22.89,22.89,0,0,0,40.66-17.64,22.89,22.89,0,0,0,27.61-34.67,22.89,22.89,0,0,0,8.1-43.58Z"/><path class="cls-5" d="M379.83,200.4H118.23l-2.81-32C108.1,113.45,134.51,59,183,32A135.32,135.32,0,0,1,249,14.9h0A135.35,135.35,0,0,1,315.11,32c48.44,27,74.84,81.44,67.53,136.41Z"/><ellipse class="cls-6" cx="136.59" cy="219.08" rx="30.72" ry="35.62"/><ellipse class="cls-6" cx="363.41" cy="219.08" rx="30.72" ry="35.62"/><path class="cls-2" d="M136.59,113.57V259.66c0,62.63,51.53,105.74,111.64,110.48,44.48,3.51,115.18-47.85,115.18-110.48V113.57Z"/><path class="cls-3" d="M273.84,257.5c0-2.61-3.65-5-7.67-6.73a36.76,36.76,0,0,1-12.85-9.94c-2.61-3-5.11-2.62-7.52.47a33.77,33.77,0,0,1-12.59,9.64c-3.75,1.73-7.05,4-7.05,6.56a9.78,9.78,0,0,0,9.26,9.76,16,16,0,0,0,29.16,0A9.78,9.78,0,0,0,273.84,257.5Z"/><path class="cls-5" d="M220.64,182.3a3.08,3.08,0,0,1-1-.06c-.29-.08-30-7.16-47.39,3.51-2,1.23-4.45-.24-5.5-3.28s-.28-6.48,1.7-7.7c19.42-12,50.43-4.54,51.74-4.21,2.24.55,3.94,3.61,3.79,6.83C223.81,180.1,222.42,182.07,220.64,182.3Z"/><path class="cls-5" d="M278.12,182.3a3.06,3.06,0,0,0,1-.06c.3-.08,30-7.16,47.4,3.51,2,1.23,4.45-.24,5.5-3.28s.28-6.48-1.71-7.7c-19.42-12-50.42-4.54-51.74-4.21-2.24.55-3.93,3.61-3.78,6.83C275,180.1,276.35,182.07,278.12,182.3Z"/><path class="cls-3" d="M249.17,260.08h0a10,10,0,0,1-10-10V226.68a10,10,0,0,1,10-10h0a10,10,0,0,1,10,10V250.1A10,10,0,0,1,249.17,260.08Z"/><path class="cls-5" d="M136.59,174.06S268,163.4,328.67,114.35c0,0-4.7,33.38-24.08,43,0,0,42.71-4.66,61.47-43L343,72.73l-91.67-4.67L136.59,91.39,126.3,121.06Z"/><path class="cls-7" d="M218.68,223.39a4,4,0,0,1-4-3.35c-.69-4-5.15-11.61-17.06-11.61-15.06,0-18.14,10.35-18.26,10.8a4,4,0,0,1-7.8-2c1.5-5.82,8.87-16.81,26.06-16.81,15,0,23.49,9.48,25,18.3a4,4,0,0,1-3.28,4.66A4.23,4.23,0,0,1,218.68,223.39Z"/><path class="cls-7" d="M191.65,209a4,4,0,0,1-3.9-3.11L185.5,196a4,4,0,0,1,7.8-1.77l2.25,9.89a4,4,0,0,1-3,4.79A3.92,3.92,0,0,1,191.65,209Z"/><path class="cls-7" d="M202.53,208.21a3.92,3.92,0,0,1-.89-.1,4,4,0,0,1-3-4.79l2.25-9.89a4,4,0,0,1,7.8,1.77l-2.25,9.9A4,4,0,0,1,202.53,208.21Z"/><path class="cls-7" d="M281.32,223.39a4,4,0,0,0,4-3.35c.69-4,5.15-11.61,17.06-11.61,15.06,0,18.14,10.35,18.26,10.8a4,4,0,0,0,7.8-2c-1.5-5.82-8.87-16.81-26.06-16.81-15,0-23.49,9.48-25,18.3a4,4,0,0,0,3.28,4.66A4.23,4.23,0,0,0,281.32,223.39Z"/><path class="cls-7" d="M308.35,209a4,4,0,0,0,3.9-3.11l2.25-9.9a4,4,0,0,0-7.8-1.77l-2.25,9.89a4,4,0,0,0,3,4.79A3.92,3.92,0,0,0,308.35,209Z"/><path class="cls-7" d="M297.47,208.21a3.92,3.92,0,0,0,.89-.1,4,4,0,0,0,3-4.79l-2.25-9.89a4,4,0,0,0-7.8,1.77l2.25,9.9A4,4,0,0,0,297.47,208.21Z"/><path class="cls-5" d="M122.32,177.28,126,220.85h10.56s-4.57-83.21,30.27-99.79H136.59Z"/><path class="cls-5" d="M377.68,177.28,374,220.85H363.41s4.57-83.21-30.27-99.79h30.27Z"/><path class="cls-8" d="M251.38,404.85h0l-25.56,4.5,10.6,24.59a11,11,0,0,0,10.07,6.63h9.78a11,11,0,0,0,10.07-6.63l10.59-24.59Z"/><path class="cls-9" d="M251.38,404.85l-63.66,20.72v-57s2-6.47,18.8-5.62v20.29S212.54,399.63,251.38,404.85Z"/><path class="cls-9" d="M251.38,404.85,315,425.57v-57s-2-6.47-18.8-5.62v20.29S290.22,399.63,251.38,404.85Z"/><path class="cls-10" d="M250.47,308.1a57.42,57.42,0,0,1-31.18-9.47,4,4,0,0,1,4.78-6.49c1.07.78,24.88,17.69,52-.12a4,4,0,1,1,4.42,6.74A54,54,0,0,1,250.47,308.1Z"/></svg>