<svg id="Layer_1" data-name="Layer 1" xmlns="http://www.w3.org/2000/svg" viewBox="0 0 500 500"><defs><style>.cls-1{fill:#eff6f9;}.cls-2{fill:#f4d6b0;}.cls-3{fill:#e0bb94;}.cls-4{fill:#a7a9ac;}.cls-5{fill:#231f20;}.cls-6{fill:#6d6e71;}.cls-7{fill:#e6e7e8;}.cls-8{fill:#ffe1cc;}.cls-9{fill:#efd1bd;}.cls-10{fill:#d1d3d4;}.cls-11{fill:#f26522;}.cls-12{fill:#facfaf;}.cls-13{fill:#fbb040;}.cls-14{fill:#fae0bb;}.cls-15{fill:#272223;}.cls-16{fill:#f2bd99;}</style></defs><title>Tawk_Avatar-Female</title><path class="cls-1" d="M250,484.43a177,177,0,1,1,177-177,177,177,0,0,1-177,177"/><path class="cls-2" d="M294.86,362.28v-32l-44.86,32-44.86-32v32c0,13.86-14.11,13.86-14.11,13.86l59,58.72,59-58.72S294.86,376.14,294.86,362.28Z"/><path class="cls-3" d="M294.86,330.27l-44.86,32-44.86-32v32c0,.45,0,.84-.08,1.26,24.59,11,44.94,12,44.94,12s20.35-.94,44.94-12c0-.42-.08-.81-.08-1.26Z"/><path class="cls-4" d="M106.72,411.32a178.07,178.07,0,0,0,44,42.64V392.87Z"/><path class="cls-4" d="M392.66,412.18l-44-19.1v61.3A178.23,178.23,0,0,0,392.66,412.18Z"/><path class="cls-5" d="M316,378.92h-7.14l-19.05,21.52c-6.56,7.41-34.27,3.73-39.84,3.73-14.63,0-29.25,8.23-39.84-3.73l-19-21.52H184l-33.26,13.95V454a177,177,0,0,0,198,.42v-61.3Z"/><path class="cls-6" d="M233.78,463.06l-35.42-55.19,41.75-3.14s7.17,40.5,7,41.33-3,29.86-3,29.86Z"/><polygon class="cls-4" points="240.71 426.17 233.78 463.06 250.98 484.43 250.98 427.09 240.71 426.17"/><path class="cls-6" d="M266.85,463.06l34.67-55.19-40.87-3.14s-7,40.5-6.86,41.33,2.92,29.86,2.92,29.86Z"/><polygon class="cls-4" points="260.05 426.17 266.85 463.06 250 484.43 250 427.09 260.05 426.17"/><path class="cls-7" d="M251,404.17l43.12,16.6,24.86-43.12s-7.59-16.22-24.06-15.37v20.29S289,399,251,404.17Z"/><path class="cls-1" d="M250,484.43a177,177,0,1,1,177-177,177,177,0,0,1-177,177"/><path class="cls-8" d="M294.86,362.28v-32l-44.86,32-44.86-32v32c0,13.86-14.11,13.86-14.11,13.86l59,58.72,59-58.72S294.86,376.14,294.86,362.28Z"/><path class="cls-9" d="M294.86,330.27l-44.86,32-44.86-32v32c0,.45,0,.84-.08,1.26,24.59,11,44.94,12,44.94,12s20.35-.94,44.94-12c0-.42-.08-.81-.08-1.26Z"/><path class="cls-4" d="M106.72,411.32a178.07,178.07,0,0,0,44,42.64V392.87Z"/><path class="cls-4" d="M392.66,412.18l-44-19.1v61.3A178.23,178.23,0,0,0,392.66,412.18Z"/><path class="cls-5" d="M316,378.92h-7.14l-19.05,21.52c-6.56,7.41-34.27,3.73-39.84,3.73-14.63,0-29.25,8.23-39.84-3.73l-19-21.52H184l-33.26,13.95V454a177,177,0,0,0,198,.42v-61.3Z"/><path class="cls-6" d="M233.78,463.06l-35.42-55.19,41.75-3.14s7.17,40.5,7,41.33-3,29.86-3,29.86Z"/><path class="cls-6" d="M266.85,463.06l34.67-55.19-40.87-3.14s-7,40.5-6.86,41.33,2.92,29.86,2.92,29.86Z"/><polygon class="cls-4" points="250.98 483.19 266.85 463.06 260.05 426.17 250.49 427.05 240.71 426.17 233.78 463.06 250 483.22 250 484.43 250.49 483.81 250.98 484.43 250.98 483.19"/><path class="cls-7" d="M249.05,404.17l-43.12,16.6-24.86-43.12s7.59-16.22,24.06-15.37v20.29S211,399,249.05,404.17Z"/><path class="cls-10" d="M252.88,404.17h-5l-5.57,1.22-10.81,1.95,7.28,17.27a7.55,7.55,0,0,0,6.93,4.66h8.65a7.53,7.53,0,0,0,6.92-4.66l7.29-17.27Z"/><path class="cls-7" d="M249.05,404.17l-43.12,16.6-24.86-43.12s7.59-16.22,24.06-15.37v20.29S211,399,249.05,404.17Z"/><path class="cls-7" d="M251,404.17l43.12,16.6,24.86-43.12s-7.59-16.22-24.06-15.37v20.29S289,399,251,404.17Z"/><path class="cls-11" d="M378.88,192.83h-250l-2.69-30.55c-7-52.53,18.25-104.56,64.54-130.35a129.26,129.26,0,0,1,63.14-16.36h0A129.3,129.3,0,0,1,317,31.93c46.29,25.79,71.52,77.82,64.53,130.35Z"/><ellipse class="cls-12" cx="140.48" cy="215.96" rx="30.72" ry="35.62"/><ellipse class="cls-12" cx="367.29" cy="215.96" rx="30.72" ry="35.62"/><polygon class="cls-13" points="388.36 304.87 364.58 304.87 372.47 253.7 380.47 253.7 388.36 304.87"/><circle class="cls-13" cx="376.47" cy="250.85" r="9.37" transform="translate(-67.11 339.68) rotate(-45)"/><polygon class="cls-13" points="143.18 304.87 119.4 304.87 127.29 253.7 135.29 253.7 143.18 304.87"/><circle class="cls-13" cx="131.29" cy="250.85" r="9.37" transform="translate(-138.92 166.31) rotate(-45)"/><path class="cls-14" d="M177.15,105.49a36.67,36.67,0,0,0-36.67,36.68V256.53c0,62.64,71.55,110.66,111.63,110.49,38.92-.16,115.18-47.85,115.18-110.49V142.17a36.68,36.68,0,0,0-36.67-36.68Z"/><path class="cls-15" d="M225.14,183.3a2.64,2.64,0,0,1-1-.06c-.29-.07-30-7.16-47.39,3.52-2,1.22-4.45-.25-5.5-3.28s-.28-6.49,1.7-7.71c19.42-12,50.43-4.53,51.74-4.21,2.24.55,3.94,3.61,3.79,6.83C228.31,181.11,226.92,183.07,225.14,183.3Z"/><path class="cls-15" d="M282.62,183.3a2.63,2.63,0,0,0,1-.06c.3-.07,30-7.16,47.4,3.52,2,1.22,4.45-.25,5.5-3.28s.28-6.49-1.71-7.71c-19.42-12-50.42-4.53-51.74-4.21-2.24.55-3.93,3.61-3.78,6.83C279.45,181.11,280.85,183.07,282.62,183.3Z"/><path class="cls-15" d="M222.57,220.26a4,4,0,0,1-4-3.34c-.7-4-5.16-11.61-17.07-11.61-15.06,0-18.13,10.35-18.26,10.79a4,4,0,0,1-7.8-2c1.5-5.81,8.87-16.81,26.06-16.81,15,0,23.49,9.49,25,18.3a4,4,0,0,1-3.28,4.66A4.11,4.11,0,0,1,222.57,220.26Z"/><path class="cls-15" d="M195.53,205.85a4,4,0,0,1-3.89-3.12l-2.26-9.89a4,4,0,1,1,7.8-1.78l2.26,9.9a4,4,0,0,1-3,4.79A4.41,4.41,0,0,1,195.53,205.85Z"/><path class="cls-15" d="M206.42,205.09a4.41,4.41,0,0,1-.89-.1,4,4,0,0,1-3-4.79l2.26-9.9a4,4,0,1,1,7.8,1.78L210.31,202A4,4,0,0,1,206.42,205.09Z"/><path class="cls-15" d="M285.2,220.26a4,4,0,0,0,4-3.34c.69-4,5.15-11.61,17.06-11.61,15.07,0,18.14,10.35,18.26,10.79a4.06,4.06,0,0,0,4.94,2.83,4,4,0,0,0,2.86-4.88c-1.49-5.81-8.87-16.81-26.06-16.81-15,0-23.49,9.49-25,18.3a4,4,0,0,0,4,4.72Z"/><path class="cls-15" d="M312.23,205.85a4,4,0,0,0,3.9-3.12l2.25-9.89a4,4,0,0,0-7.8-1.78l-2.25,9.9a4,4,0,0,0,3,4.79A4.58,4.58,0,0,0,312.23,205.85Z"/><path class="cls-15" d="M301.35,205.09a4.58,4.58,0,0,0,.89-.1,4,4,0,0,0,3-4.79L303,190.3a4,4,0,0,0-7.8,1.78l2.25,9.89A4,4,0,0,0,301.35,205.09Z"/><circle class="cls-16" cx="320.48" cy="248.27" r="12.01"/><circle class="cls-16" cx="187.29" cy="248.27" r="12.01"/><path class="cls-11" d="M126.2,162.28l3.71,43.57h10.57s-4.58-83.21,30.26-99.79H140.48Z"/><path class="cls-11" d="M381.56,162.28l-3.71,43.57H367.29s4.58-83.21-30.26-99.79h30.26Z"/><path class="cls-11" d="M160.91,105.39s17.34,33.54,60.67,36.81l-14-27.39s45.37,34,83.37,30.67l-27-28.67s54.43,21,95.38,19.19l4.29-29.94-36-20.86-133.17,3Z"/><path class="cls-16" d="M277.72,253.71c0-2.6-3.65-5-7.67-6.72a37.06,37.06,0,0,1-12.85-9.94c-2.61-3-5.1-2.63-7.51.46a33.73,33.73,0,0,1-12.59,9.64c-3.76,1.74-7,4-7,6.56a9.79,9.79,0,0,0,9.26,9.77,16,16,0,0,0,29.15,0A9.79,9.79,0,0,0,277.72,253.71Z"/><path class="cls-16" d="M253.05,256.3h0a10,10,0,0,1-10-10V222.92a10,10,0,0,1,10-10h0a10,10,0,0,1,10,10V246.3A10,10,0,0,1,253.05,256.3Z"/><path class="cls-16" d="M254.36,313.24a57.61,57.61,0,0,1-31.19-9.46,4,4,0,0,1,4.79-6.49c1.06.78,24.87,17.69,52-.13a4,4,0,0,1,4.42,6.75A54,54,0,0,1,254.36,313.24Z"/></svg>