<svg id="Layer_1" data-name="Layer 1" xmlns="http://www.w3.org/2000/svg" viewBox="0 0 500 500"><defs><style>.cls-1{fill:#eff6f9;}.cls-2{fill:#ffe1cc;}.cls-3{fill:#efd1bd;}.cls-4{fill:#ed1c24;}.cls-5{fill:#fbb040;}.cls-6{fill:#be1e2d;}.cls-7{fill:#fae0bb;}.cls-8{fill:#42281b;}.cls-9{fill:#ee38ab;}.cls-10{fill:#ffc7b6;}.cls-11{fill:#5c5d64;}.cls-12{fill:#dc9b80;}</style></defs><title>Tawk_Avatar-Female</title><path class="cls-1" d="M250,493a177,177,0,1,0-177-177A177,177,0,0,0,250,493"/><path class="cls-2" d="M205.14,370.89v-32l44.86,32,44.86-32v32c0,13.86,14.11,13.86,14.11,13.86l-59,58.72-59-58.72S205.14,384.75,205.14,370.89Z"/><path class="cls-3" d="M205.14,343.72l44.86,32,44.86-32v32c0,.45.05.84.08,1.26C270.35,388,250,389,250,389s-20.35-.94-44.94-12c0-.42.08-.81.08-1.26Z"/><path class="cls-4" d="M140.88,455.36c9.48-19.24,7.13-41.52,5.36-51.46L184,387.53h7.14l19,21.52a53.21,53.21,0,0,0,79.68,0l19.05-21.52H316l37.82,15.86c-1.78,9.68-4.38,32.4,5.27,52a176.84,176.84,0,0,1-218.24,0Z"/><path class="cls-5" d="M176.1,390.94s44.3,89.44,126.59,94.12l-17.61,4.49s-72.28-13-115.19-95.91Z"/><path class="cls-5" d="M200.32,446.58l13.34-11s4.27-.74,2.18,2.66S200.16,453.58,200.32,446.58Z"/><path class="cls-5" d="M216.42,461l13.33-11s4.27-.73,2.18,2.67S216.25,468,216.42,461Z"/><path class="cls-5" d="M236.3,473.58l13.33-11s4.27-.74,2.18,2.66S236.13,480.58,236.3,473.58Z"/><path class="cls-6" d="M194.56,380.46l19,17.87a53.2,53.2,0,0,0,72.92,0l19-17.87L316,387.53,294.62,409.1a62.86,62.86,0,0,1-89.24,0L184,387.53Z"/><path class="cls-7" d="M353.85,403.39l39.43,16.55a177.82,177.82,0,0,1-34.16,35.42C349.47,435.79,352.07,413.07,353.85,403.39Z"/><path class="cls-7" d="M107.34,420.79l38.9-16.89c1.77,9.94,4.12,32.22-5.36,51.46A178.35,178.35,0,0,1,107.34,420.79Z"/><circle class="cls-8" cx="351.95" cy="57.61" r="50.65" transform="translate(215.02 386.91) rotate(-76.72)"/><circle class="cls-8" cx="146.09" cy="57.61" r="50.65" transform="translate(27.89 161.01) rotate(-62.7)"/><path class="cls-9" d="M314.67,55.8a121.94,121.94,0,0,1,49.15,51.05,49.82,49.82,0,0,0,11-4,133.22,133.22,0,0,0-69.72-64.43,50.64,50.64,0,0,0-3.16,11.26A123.56,123.56,0,0,1,314.67,55.8Z"/><path class="cls-9" d="M193.38,39.46c-.14-.36-.28-.72-.43-1.08-.87.35-1.73.71-2.59,1.08a133,133,0,0,0-67.13,63.35,50.19,50.19,0,0,0,11,4,121.94,121.94,0,0,1,49.15-51,124.56,124.56,0,0,1,12.74-6.16A50.91,50.91,0,0,0,193.38,39.46Z"/><path class="cls-8" d="M383.08,228.16H115l-2.88-32.77c-7.49-56.34,19.57-112.14,69.21-139.81A138.75,138.75,0,0,1,249,38.05h0a138.75,138.75,0,0,1,67.73,17.53c49.64,27.67,76.7,83.47,69.21,139.81Z"/><ellipse class="cls-10" cx="135.61" cy="233.31" rx="30.72" ry="35.62"/><ellipse class="cls-10" cx="362.43" cy="233.31" rx="30.72" ry="35.62"/><path class="cls-2" d="M172.29,122.84a36.68,36.68,0,0,0-36.68,36.67V273.88c0,55.78,64,106.73,111.64,110.49,36.72,2.89,115.18-60.46,115.18-110.49V159.51a36.68,36.68,0,0,0-36.68-36.67Z"/><path class="cls-11" d="M322.1,232.34c1.37,1.2,3.11,1.6,4.16.86l5.62-3.95c1.22-.86,1.06-2.93-.37-4.62s-3.57-2.37-4.8-1.51l-5.61,3.95c-1.22.86-1.06,2.93.37,4.62A5.54,5.54,0,0,0,322.1,232.34Z"/><path class="cls-11" d="M277.75,234.4a3.5,3.5,0,0,0,2.5-1.06c.82-.82,19.94-19.74,42-.52a3.5,3.5,0,1,0,4.6-5.28c-27.12-23.62-51.37.66-51.62.91a3.51,3.51,0,0,0,2.51,6Z"/><path class="cls-11" d="M174.29,232.34c-1.38,1.2-3.12,1.6-4.17.86l-5.62-3.95c-1.22-.86-1.05-2.93.37-4.62s3.58-2.37,4.8-1.51l5.61,3.95c1.23.86,1.06,2.93-.36,4.62A6.48,6.48,0,0,1,174.29,232.34Z"/><path class="cls-11" d="M218.63,234.4a3.52,3.52,0,0,1-2.5-1.06c-.81-.82-19.94-19.74-42-.52a3.5,3.5,0,1,1-4.6-5.28c27.12-23.62,51.38.66,51.62.91a3.51,3.51,0,0,1-2.51,6Z"/><path class="cls-10" d="M272.86,266.61c0-2.61-3.65-5-7.67-6.73a36.85,36.85,0,0,1-12.85-9.94c-2.61-3-5.1-2.62-7.51.47a33.89,33.89,0,0,1-12.6,9.64c-3.75,1.73-7,4-7,6.56a9.78,9.78,0,0,0,9.25,9.76,16,16,0,0,0,29.16,0A9.78,9.78,0,0,0,272.86,266.61Z"/><path class="cls-8" d="M219.67,196.52a2.68,2.68,0,0,1-1-.06c-.29-.07-30-7.16-47.39,3.52-2,1.23-4.45-.24-5.5-3.28s-.28-6.49,1.71-7.71c19.41-12,50.42-4.53,51.73-4.21,2.25.55,3.94,3.61,3.79,6.84C222.83,194.33,221.44,196.29,219.67,196.52Z"/><path class="cls-8" d="M277.14,196.52a2.62,2.62,0,0,0,1-.06c.3-.07,30-7.16,47.4,3.52,2,1.23,4.45-.24,5.5-3.28s.28-6.49-1.71-7.71c-19.42-12-50.42-4.53-51.74-4.21-2.24.55-3.93,3.61-3.78,6.84C274,194.33,275.37,196.29,277.14,196.52Z"/><path class="cls-10" d="M248.19,269.19h0a10.58,10.58,0,0,1-10.58-10.58V236.39a10.58,10.58,0,0,1,10.58-10.58h0a10.59,10.59,0,0,1,10.59,10.58v22.22A10.59,10.59,0,0,1,248.19,269.19Z"/><rect class="cls-8" x="133.69" y="104.35" width="220.78" height="16.64"/><polygon class="cls-8" points="313.31 141.28 184.73 141.28 173.61 120.99 324.43 120.99 313.31 141.28"/><path class="cls-8" d="M324.43,121l4.16,19.43s29.12,3,33.84,47.59l3.38-71.32Z"/><path class="cls-8" d="M173.19,121l-4.34,20.29s-28.94,2.09-33.66,46.73l-1.5-67.81Z"/><path class="cls-12" d="M247.72,324.45A57.52,57.52,0,0,0,278.91,315a4,4,0,0,0-4.79-6.49c-1.07.78-24.88,17.69-52-.12a4,4,0,1,0-4.42,6.74A54,54,0,0,0,247.72,324.45Z"/></svg>