<svg id="Layer_1" data-name="Layer 1" xmlns="http://www.w3.org/2000/svg" viewBox="0 0 500 500"><defs><style>.cls-1{fill:#eff6f9;}.cls-2{fill:#facdab;}.cls-3{fill:#f2bd99;}.cls-4{fill:#ee38ab;}.cls-5{fill:#d82a9e;}.cls-6{fill:#f26522;}.cls-7{fill:#272223;}.cls-8{fill:#726658;}.cls-9{fill:#dc9b80;}.cls-10{opacity:0.37;}.cls-11{fill:#bbf2ff;}.cls-12{fill:#5c5d64;}</style></defs><title>Tawk_Avatar-Female</title><path class="cls-1" d="M250,486.06a177,177,0,1,1,177-177,177,177,0,0,1-177,177"/><path class="cls-2" d="M294.86,363.91v-32l-44.86,32-44.86-32v32c0,13.86-14.11,13.86-14.11,13.86l59,58.72,59-58.72S294.86,377.77,294.86,363.91Z"/><path class="cls-3" d="M294.86,331.91l-44.86,32-44.86-32v32c0,.45,0,.85-.08,1.27,24.59,11,44.94,12,44.94,12s20.35-.94,44.94-12c0-.42-.08-.82-.08-1.27Z"/><path class="cls-4" d="M250,486.06a176.7,176.7,0,0,0,142.66-72.25L316,380.55h-7.14l-19.05,21.53a53.21,53.21,0,0,1-79.68,0l-19-21.53H184L106.72,413A176.71,176.71,0,0,0,250,486.06"/><path class="cls-5" d="M305.44,373.48l-19,17.87a53.2,53.2,0,0,1-72.92,0l-19-17.87L184,380.55l21.41,21.57a62.86,62.86,0,0,0,89.24,0L316,380.55Z"/><ellipse class="cls-3" cx="136.59" cy="216.43" rx="30.72" ry="35.62"/><ellipse class="cls-3" cx="362.6" cy="216.43" rx="30.72" ry="35.62"/><path class="cls-6" d="M407.93,64.61c-7.33,4.66-26.33-9.34-26.33-9.34,12.66-6.33,11.72-41.33,11.72-41.33-13,18-84.85,15.54-121.47,13a130.84,130.84,0,0,0-21.46-1.77h0a129.29,129.29,0,0,0-63.15,16.35c-46.29,25.8-71.52,77.82-64.53,130.35l2.68,30.56h250l2.69-30.56A131.19,131.19,0,0,0,367.23,99.8C406.43,92.93,407.93,64.61,407.93,64.61Z"/><path class="cls-2" d="M217.85,85c-44.88,0-81.26,44.73-81.26,89.61V257c0,62.63,51.53,105.75,111.64,110.49C292.71,371,363.41,319.63,363.41,257V160a75,75,0,0,0-75-75Z"/><path class="cls-6" d="M154.05,100.36s17.34,33.55,60.67,36.82l-14-27.39s45.37,34,83.37,30.67l-27-28.67s54.43,21,95.38,19.19L356.72,101l-36-20.86-133.17,3Z"/><circle class="cls-3" cx="316.6" cy="252.87" r="12.01"/><circle class="cls-3" cx="183.4" cy="252.87" r="12.01"/><path class="cls-7" d="M218.68,221.28a4,4,0,0,1-4-3.34c-.69-4-5.15-11.61-17.06-11.61-15.06,0-18.14,10.35-18.26,10.79a4,4,0,0,1-7.8-2.05c1.5-5.81,8.87-16.81,26.06-16.81,15,0,23.49,9.49,25,18.3a4,4,0,0,1-3.28,4.66A4.23,4.23,0,0,1,218.68,221.28Z"/><path class="cls-7" d="M191.65,206.87a4,4,0,0,1-3.9-3.12l-2.25-9.89a4,4,0,0,1,7.8-1.78l2.25,9.9a4,4,0,0,1-3,4.79A4.58,4.58,0,0,1,191.65,206.87Z"/><path class="cls-7" d="M202.53,206.11a4.58,4.58,0,0,1-.89-.1,4,4,0,0,1-3-4.79l2.25-9.9a4,4,0,0,1,7.81,1.78L206.43,203A4,4,0,0,1,202.53,206.11Z"/><path class="cls-7" d="M281.32,221.28a4,4,0,0,0,4-3.34c.69-4,5.15-11.61,17.06-11.61,15.06,0,18.14,10.35,18.26,10.79a4,4,0,0,0,7.8-2.05c-1.5-5.81-8.87-16.81-26.06-16.81-15,0-23.49,9.49-25,18.3a4,4,0,0,0,4,4.72Z"/><path class="cls-7" d="M308.35,206.87a4,4,0,0,0,3.9-3.12l2.25-9.89a4,4,0,1,0-7.8-1.78l-2.25,9.9a4,4,0,0,0,3,4.79A4.58,4.58,0,0,0,308.35,206.87Z"/><path class="cls-7" d="M297.47,206.11a4.58,4.58,0,0,0,.89-.1,4,4,0,0,0,3-4.79l-2.25-9.9a4,4,0,0,0-7.8,1.78l2.25,9.89A4,4,0,0,0,297.47,206.11Z"/><path class="cls-3" d="M273.49,250.52c0-2.57-3.59-4.91-7.56-6.64a36.3,36.3,0,0,1-12.66-9.79c-2.57-2.94-5-2.59-7.4.46a33.37,33.37,0,0,1-12.42,9.5c-3.7,1.71-6.94,4-6.94,6.47a9.64,9.64,0,0,0,9.12,9.62,15.75,15.75,0,0,0,28.74,0A9.64,9.64,0,0,0,273.49,250.52Z"/><path class="cls-8" d="M220.64,179.64a2.64,2.64,0,0,1-1-.06c-.29-.07-30-7.16-47.39,3.52-2,1.23-4.45-.25-5.5-3.28s-.28-6.49,1.7-7.71c19.42-12,50.43-4.53,51.74-4.21,2.24.55,3.94,3.61,3.79,6.83C223.81,177.45,222.42,179.41,220.64,179.64Z"/><path class="cls-8" d="M278.12,179.64a2.62,2.62,0,0,0,1-.06c.3-.07,30-7.16,47.4,3.52,2,1.23,4.45-.25,5.5-3.28s.28-6.49-1.71-7.71c-19.42-12-50.42-4.53-51.74-4.21-2.24.55-3.93,3.61-3.78,6.83C275,177.45,276.35,179.41,278.12,179.64Z"/><path class="cls-9" d="M250.47,305.44A57.6,57.6,0,0,1,219.29,296a4,4,0,0,1,4.78-6.49c1.07.78,24.88,17.69,52-.13a4,4,0,0,1,4.42,6.75A54.08,54.08,0,0,1,250.47,305.44Z"/><g class="cls-10"><path class="cls-11" d="M164.29,189s-2.64,5.26-2.39,20.14c.12,6.86.64,14.2,1.16,20.12a12.77,12.77,0,0,0,13,11.63l46.73-1.05A12.79,12.79,0,0,0,235.3,227v-24.1s-1.08-13.59-23.25-15.2S164.29,189,164.29,189Z"/></g><g class="cls-10"><path class="cls-11" d="M336.19,189s2.64,5.26,2.39,20.14c-.11,6.86-.63,14.2-1.16,20.12a12.77,12.77,0,0,1-13,11.63l-46.72-1.05A12.79,12.79,0,0,1,265.18,227v-24.1s1.08-13.59,23.26-15.2S336.19,189,336.19,189Z"/></g><path class="cls-12" d="M235.75,211.13a2,2,0,0,1-2-2c0-.51-.14-12.39-9.56-16.23-10.06-4.1-25.81-4.71-34.3-4.71-10.06,0-22.45.92-25.87,2.93l-.53.31-.26.56a2,2,0,0,1-1.82,1.15,1.81,1.81,0,0,1-.4,0,2,2,0,0,1-1.58-2.38,4.79,4.79,0,0,1,2.76-3.18c4-2.16,13.69-3.46,25.82-3.46,15.33,0,30.13,2,37.7,5.09,12,4.9,12.07,19.37,12.07,20a2,2,0,0,1-2,2Z"/><path class="cls-12" d="M264.23,211.13a2,2,0,0,1-2-2c0-.61.05-15.08,12.07-20,7.57-3.09,22.37-5.08,37.7-5.08,12.13,0,21.78,1.29,25.82,3.46a4.76,4.76,0,0,1,2.76,3.17,2,2,0,0,1-1.58,2.38,2.58,2.58,0,0,1-.4,0,2,2,0,0,1-1.82-1.15l-.26-.56-.53-.31c-3.42-2-15.81-2.93-25.87-2.93-8.49,0-24.24.61-34.3,4.71-9.56,3.9-9.56,16.11-9.56,16.23a2,2,0,0,1-.58,1.43,2,2,0,0,1-1.41.6Z"/><path class="cls-12" d="M236.53,205.54a2,2,0,0,1-2-2,1.93,1.93,0,0,1,1.88-2l27.84.26a2,2,0,0,1,0,4Z"/><rect class="cls-3" x="238.28" y="209.44" width="23.43" height="42.76" rx="11.31" ry="11.31"/></svg>