<svg id="Layer_1" data-name="Layer 1" xmlns="http://www.w3.org/2000/svg" viewBox="0 0 500 500"><defs><style>.cls-1{fill:#eff6f9;}.cls-2{fill:#ffc200;}.cls-3{fill:#facdab;}.cls-4{fill:#f2bd99;}.cls-5{fill:#ab4dce;}.cls-6{fill:#ee2a7b;}.cls-7{fill:#dc9b80;}.cls-8{fill:#272223;}.cls-10,.cls-9{fill:#ed1c24;}.cls-9{opacity:0.5;}</style></defs><title>Tawk_Avatar-Female</title><path class="cls-1" d="M250,485.29a177,177,0,1,1,177-177,177,177,0,0,1-177,177"/><path class="cls-2" d="M251.2,14.71h0A134.19,134.19,0,0,1,385.39,148.91V368.63a38.27,38.27,0,0,1-38.27,38.27H155.28A38.27,38.27,0,0,1,117,368.63V148.91A134.19,134.19,0,0,1,251.2,14.71Z"/><rect class="cls-2" x="92.83" y="306.88" width="316.74" height="60.01" rx="30" ry="30"/><path class="cls-2" d="M95.34,395.26a180.6,180.6,0,0,0,27.85,36.79h253.7a195.74,195.74,0,0,0,18.45-21.79,178.45,178.45,0,0,0,23.16-45.75,35.55,35.55,0,0,0-16.1-3.84H100a35.48,35.48,0,0,0-18,4.87A169.93,169.93,0,0,0,95.34,395.26Z"/><path class="cls-3" d="M294.86,363.14v-32l-44.86,32-44.86-32v32C205.14,377,191,377,191,377l59,58.72L309,377S294.86,377,294.86,363.14Z"/><path class="cls-4" d="M294.86,331.13l-44.86,32-44.86-32v32c0,.45,0,.84-.08,1.26,24.59,11,44.94,12,44.94,12s20.35-.94,44.94-12c0-.42-.08-.81-.08-1.26Z"/><path class="cls-5" d="M250,485.29A176.7,176.7,0,0,0,392.66,413L316,379.78h-7.14L289.84,401.3a53.21,53.21,0,0,1-79.68,0l-19-21.52H184l-77.25,32.4A176.69,176.69,0,0,0,250,485.29"/><path class="cls-6" d="M194.56,372.71s9.56-2.95,5.17-23.95l97.81-3s-5,23.89,7.9,26.95c0,0-.11,22.63-15.6,28.59s-50.5,10-54,9-28-13.9-28-13.9Z"/><path class="cls-6" d="M305.44,372.71l-19,17.86a53.2,53.2,0,0,1-72.92,0l-19-17.86L184,379.78l21.41,21.57a62.87,62.87,0,0,0,89.24,0L316,379.78Z"/><ellipse class="cls-4" cx="137.79" cy="218.4" rx="30.72" ry="35.62"/><ellipse class="cls-4" cx="364.61" cy="218.4" rx="30.72" ry="35.62"/><path class="cls-3" d="M174.47,107.93a36.68,36.68,0,0,0-36.68,36.68V259c0,62.64,71.56,110.66,111.64,110.49,38.92-.16,115.18-47.85,115.18-110.49V144.61a36.68,36.68,0,0,0-36.68-36.68Z"/><path class="cls-7" d="M251.74,306.88a57.57,57.57,0,0,1-31.19-9.47,4,4,0,0,1,4.78-6.49c1.07.78,24.88,17.69,52-.12a4,4,0,1,1,4.42,6.74A54,54,0,0,1,251.74,306.88Z"/><path class="cls-4" d="M275,255.9c0-2.6-3.65-5-7.67-6.72a37.08,37.08,0,0,1-12.85-9.94c-2.61-3-5.1-2.63-7.51.46a33.68,33.68,0,0,1-12.6,9.64c-3.75,1.74-7,4-7,6.56a9.79,9.79,0,0,0,9.25,9.77,16,16,0,0,0,29.16,0A9.79,9.79,0,0,0,275,255.9Z"/><path class="cls-4" d="M251.2,258.49h0a10,10,0,0,1-10-10V225.13a10,10,0,0,1,10-10h0a10,10,0,0,1,10,10v23.33A10,10,0,0,1,251.2,258.49Z"/><path class="cls-8" d="M222.46,185.74a2.64,2.64,0,0,1-1-.06c-.3-.07-30-7.16-47.39,3.52-2,1.23-4.45-.25-5.5-3.28s-.29-6.49,1.7-7.71c19.42-12,50.43-4.53,51.74-4.21,2.24.55,3.94,3.61,3.79,6.83C225.63,183.55,224.24,185.51,222.46,185.74Z"/><path class="cls-8" d="M279.94,185.74a2.63,2.63,0,0,0,1-.06c.3-.07,30-7.16,47.4,3.52,2,1.23,4.45-.25,5.49-3.28s.29-6.49-1.7-7.71c-19.42-12-50.43-4.53-51.74-4.21-2.24.55-3.94,3.61-3.79,6.83C276.77,183.55,278.17,185.51,279.94,185.74Z"/><path class="cls-8" d="M219.88,222.7a4,4,0,0,1-4-3.34c-.7-4-5.16-11.61-17.07-11.61-15.06,0-18.14,10.35-18.26,10.79a4,4,0,0,1-7.8-2c1.5-5.81,8.87-16.81,26.06-16.81,15,0,23.49,9.49,25,18.3a4,4,0,0,1-3.28,4.66A4.23,4.23,0,0,1,219.88,222.7Z"/><path class="cls-8" d="M192.85,208.29a4,4,0,0,1-3.9-3.11l-2.25-9.9a4,4,0,0,1,7.8-1.78l2.25,9.9a4,4,0,0,1-3,4.79A3.92,3.92,0,0,1,192.85,208.29Z"/><path class="cls-8" d="M203.74,207.53a3.94,3.94,0,0,1-.9-.1,4,4,0,0,1-3-4.79l2.26-9.9a4,4,0,0,1,7.8,1.78l-2.26,9.89A4,4,0,0,1,203.74,207.53Z"/><path class="cls-8" d="M282.52,222.7a4,4,0,0,0,4-3.34c.69-4,5.15-11.61,17.06-11.61,15.07,0,18.14,10.35,18.26,10.79a4,4,0,0,0,7.8-2c-1.5-5.81-8.87-16.81-26.06-16.81-15,0-23.49,9.49-25,18.3a4,4,0,0,0,4,4.72Z"/><path class="cls-8" d="M309.55,208.29a4,4,0,0,0,3.9-3.11l2.25-9.9a4,4,0,0,0-7.8-1.78l-2.25,9.9a4,4,0,0,0,3,4.79A3.92,3.92,0,0,0,309.55,208.29Z"/><path class="cls-8" d="M298.67,207.53a3.92,3.92,0,0,0,.89-.1,4,4,0,0,0,3-4.79l-2.25-9.9a4,4,0,0,0-7.8,1.78l2.25,9.89A4,4,0,0,0,298.67,207.53Z"/><circle class="cls-4" cx="317.8" cy="250.71" r="12.01"/><circle class="cls-4" cx="184.6" cy="250.71" r="12.01"/><path class="cls-9" d="M231,181s-18.5-13.5-36.34,6c-17.83-19.5-36.33-6-36.33-6-20.33,17.34-4,39.67-4,39.67,15.17,19.17,40.33,36.5,40.33,36.5s25.17-17.33,40.34-36.5C235,220.62,251.33,198.29,231,181Z"/><path class="cls-9" d="M344.07,181s-18.5-13.5-36.33,6c-17.83-19.5-36.33-6-36.33-6-20.34,17.34-4,39.67-4,39.67,15.16,19.17,40.33,36.5,40.33,36.5s25.17-17.33,40.33-36.5C348.07,220.62,364.41,198.29,344.07,181Z"/><polygon class="cls-10" points="349.77 187.18 364.09 173.09 364.61 184.44 353.7 196.13 349.77 187.18"/><polygon class="cls-10" points="152.63 187.18 137.51 173.09 137.79 184.44 148.7 196.13 152.63 187.18"/><rect class="cls-10" x="240.99" y="198.26" width="20.55" height="4.12"/><rect class="cls-10" x="239.53" y="204.51" width="23.47" height="5.61"/><path class="cls-2" d="M137.79,182.78s86.52-16.08,113.41-76.14H134.09Z"/><path class="cls-2" d="M364.61,182.78S278.09,166.7,251.2,106.64H368.31Z"/></svg>