<svg id="Layer_1" data-name="Layer 1" xmlns="http://www.w3.org/2000/svg" viewBox="0 0 500 500"><defs><style>.cls-1{fill:#eff6f9;}.cls-2{fill:#ffe1cc;}.cls-3{fill:#efd1bd;}.cls-4{fill:#27aae1;}.cls-5{fill:#1b75bc;}.cls-6{fill:#e6e7e8;}.cls-7{fill:#fff;}.cls-8{fill:#272223;}.cls-9{fill:#ee38ab;}.cls-10{fill:#ffc7b6;}.cls-11{fill:#5c5d64;}.cls-12{fill:#dc9b80;}</style></defs><title>Tawk_Avatar-Female</title><path class="cls-1" d="M250,495.05a177,177,0,1,0-177-177,177,177,0,0,0,177,177"/><path class="cls-2" d="M205.14,372.9v-32l44.86,32,44.86-32v32c0,13.86,14.11,13.86,14.11,13.86l-59,58.72-59-58.72S205.14,386.76,205.14,372.9Z"/><path class="cls-3" d="M205.14,340.9l44.86,32,44.86-32v32c0,.45.05.85.08,1.27-24.59,11-44.94,12-44.94,12s-20.35-.94-44.94-12c0-.42.08-.82.08-1.27Z"/><path class="cls-4" d="M250,495.05A176.7,176.7,0,0,1,107.34,422.8L184,389.54h7.14l19,21.52a53.21,53.21,0,0,0,79.68,0l19.05-21.52H316L393.28,422A176.71,176.71,0,0,1,250,495.05"/><path class="cls-5" d="M227.11,409.62a53.26,53.26,0,0,0,52.58-3.88c1.86,4.23,4.58,8.21,7,12.11A62.92,62.92,0,0,1,219.82,422C222.23,417.84,224.49,413.63,227.11,409.62Z"/><path class="cls-6" d="M287.08,416.38c-1.23-2.08-2-3.32-3.24-5.37a52.84,52.84,0,0,1-3.28-5.87,53.36,53.36,0,0,0,5.9-4.8l22.47-19.9,7.1,9.1-13.58,14.52C300.23,406.31,289.54,414.54,287.08,416.38Z"/><path class="cls-6" d="M308.93,380.44l-14.68,30.73q-13.46,10.66-27.13,14.74l-16.81-11.13,8.12-11.66Z"/><path class="cls-6" d="M213.54,416.38c1.23-2.08,2-3.32,3.24-5.37a51.28,51.28,0,0,0,3.28-5.87,53.36,53.36,0,0,1-5.9-4.8l-22.47-19.9-7.1,9.1,13.58,14.52C200.39,406.31,211.08,414.54,213.54,416.38Z"/><path class="cls-6" d="M191.69,380.44l14.68,30.73q13.45,10.66,27.14,14.74l16.8-11.13-8.12-11.66Z"/><path class="cls-4" d="M250.6,432.36h.52c23-.21,45.83-13.75,68-40.26L313,387c-20.58,24.63-41.41,37.21-61.91,37.39h-.45c-20.69,0-42.09-12.59-63.6-37.44L181,392.16C204.05,418.84,227.48,432.36,250.6,432.36Z"/><polygon class="cls-7" points="258.43 403.12 308.93 380.44 292.43 423.17 258.43 403.12"/><polygon class="cls-7" points="242.19 403.12 191.69 380.44 208.19 423.17 242.19 403.12"/><circle class="cls-8" cx="248.46" cy="54.98" r="50.03" transform="translate(-5.77 43.9) rotate(-9.98)"/><path class="cls-9" d="M248.46,58a105.31,105.31,0,0,0-47.83,11.74,47,47,0,0,0,4,10.57,91.64,91.64,0,0,1,43.8-11.07h0a91.6,91.6,0,0,1,43.79,11.07,47.86,47.86,0,0,0,4.06-10.67A105.33,105.33,0,0,0,248.46,58Z"/><path class="cls-8" d="M375.89,250.9H121l-2.73-31.16c-7.13-53.55,18.59-106.59,65.79-132.89a131.85,131.85,0,0,1,64.38-16.67h0a131.88,131.88,0,0,1,64.38,16.67c47.19,26.3,72.91,79.34,65.79,132.89Z"/><ellipse class="cls-10" cx="135.05" cy="247.2" rx="30.72" ry="35.62"/><ellipse class="cls-10" cx="361.86" cy="247.2" rx="30.72" ry="35.62"/><path class="cls-2" d="M135.05,143.77V282.88c0,17.7,51.52,92.22,111.64,97,44.47,3.51,115.17-68.59,115.17-97V143.77Z"/><path class="cls-11" d="M322.36,240.2c1.37,1.2,3.11,1.6,4.17.86l5.61-3.95c1.22-.86,1.06-2.93-.37-4.62S328.2,230.12,327,231l-5.62,4c-1.22.87-1.06,2.93.37,4.62A6.48,6.48,0,0,0,322.36,240.2Z"/><path class="cls-11" d="M278,242.26a3.47,3.47,0,0,0,2.5-1c.82-.83,19.95-19.75,42-.53a3.5,3.5,0,1,0,4.59-5.28c-27.12-23.61-51.37.67-51.61.91a3.5,3.5,0,0,0,.06,4.95A3.46,3.46,0,0,0,278,242.26Z"/><path class="cls-11" d="M174.55,240.2c-1.37,1.2-3.11,1.6-4.16.86l-5.62-3.95c-1.22-.86-1.06-2.93.37-4.62s3.57-2.37,4.79-1.51l5.62,4c1.22.87,1.06,2.93-.37,4.62A6.48,6.48,0,0,1,174.55,240.2Z"/><path class="cls-11" d="M218.9,242.26a3.47,3.47,0,0,1-2.5-1c-.82-.83-19.94-19.75-42-.53a3.5,3.5,0,1,1-4.59-5.28c27.12-23.61,51.37.67,51.61.91a3.51,3.51,0,0,1-2.5,5.95Z"/><path class="cls-12" d="M247.08,340.55a57.65,57.65,0,0,0,31.19-9.46,4,4,0,0,0-4.79-6.49c-1.07.77-24.87,17.68-52-.13a4,4,0,0,0-4.42,6.74A54,54,0,0,0,247.08,340.55Z"/><path class="cls-10" d="M272.29,286.86c0-2.61-3.64-5-7.67-6.73a37.06,37.06,0,0,1-12.85-9.94c-2.6-3-5.1-2.63-7.51.46a33.85,33.85,0,0,1-12.59,9.65c-3.76,1.73-7,4-7,6.56a9.79,9.79,0,0,0,9.26,9.76,16,16,0,0,0,29.15,0A9.79,9.79,0,0,0,272.29,286.86Z"/><path class="cls-8" d="M219.1,210.42a2.84,2.84,0,0,1-1-.07c-.3-.07-30-7.15-47.4,3.52-2,1.23-4.45-.24-5.5-3.28s-.28-6.48,1.71-7.71c19.42-11.94,50.43-4.53,51.74-4.21,2.24.55,3.94,3.61,3.78,6.84C222.27,208.22,220.87,210.19,219.1,210.42Z"/><path class="cls-8" d="M276.58,210.42a2.86,2.86,0,0,0,1-.07c.29-.07,30-7.15,47.39,3.52,2,1.23,4.45-.24,5.5-3.28s.29-6.48-1.7-7.71c-19.42-11.94-50.43-4.53-51.74-4.21-2.24.55-3.94,3.61-3.79,6.84C273.41,208.22,274.8,210.19,276.58,210.42Z"/><rect class="cls-10" x="235.74" y="246.06" width="23.77" height="43.38" rx="11.31" ry="11.31"/><circle class="cls-10" cx="315.05" cy="282.82" r="12.01"/><circle class="cls-10" cx="181.86" cy="282.82" r="12.01"/><path class="cls-8" d="M329,140.41l.09-.15h-1.47l-8.9-.86.36,1-144.64,1.42,0-.12-3,.15h0l-38.41,2,1.5,67.81c4.71-44.64,33.65-46.73,33.65-46.73l5.22-19.46,10.67,19.46H312.74l10-15L328,164s29.13,2.95,33.84,47.59l1.64-67.81Z"/></svg>