<svg id="Layer_1" data-name="Layer 1" xmlns="http://www.w3.org/2000/svg" viewBox="0 0 500 500"><defs><style>.cls-1{fill:#eff6f9;}.cls-2{fill:#ffe1cc;}.cls-3{fill:#efd1bd;}.cls-4{fill:#27aae1;}.cls-5{fill:#1b75bc;}.cls-6{fill:#e6e7e8;}.cls-7{fill:#fff;}.cls-8{fill:#facfaf;}.cls-9{fill:#fae0bb;}.cls-10{fill:#6d4b22;}.cls-11{fill:#f2bd99;}.cls-12{fill:#272223;}.cls-13{fill:#ffc200;}.cls-14{fill:#fd928b;}.cls-15{fill:#ee38ab;}.cls-16{fill:#dd26a0;}</style></defs><title>Tawk_Avatar-Female</title><path class="cls-1" d="M248.46,480.27a177,177,0,1,1,177-177,177,177,0,0,1-177,177"/><path class="cls-2" d="M293.31,358.12v-32l-44.85,32-44.86-32v32C203.6,372,189.48,372,189.48,372l59,58.72,59-58.72S293.31,372,293.31,358.12Z"/><path class="cls-3" d="M293.31,326.12l-44.85,32-44.86-32v32c0,.45-.06.85-.09,1.27,24.6,11,45,12,45,12s20.34-.94,44.94-12c0-.42-.09-.82-.09-1.27Z"/><path class="cls-4" d="M248.46,480.27A176.7,176.7,0,0,0,391.11,408l-76.63-33.26h-7.14l-19,21.52a53.2,53.2,0,0,1-79.67,0l-19.05-21.52h-7.14l-77.25,32.41a176.71,176.71,0,0,0,143.28,73.1"/><path class="cls-5" d="M271.35,394.84A53.28,53.28,0,0,1,218.76,391c-1.85,4.23-4.57,8.21-7,12.11a62.94,62.94,0,0,0,66.92,4.13C276.23,403.06,274,398.85,271.35,394.84Z"/><path class="cls-6" d="M211.37,401.6c1.24-2.08,2-3.32,3.25-5.37a52.76,52.76,0,0,0,3.27-5.87,54.31,54.31,0,0,1-5.9-4.8l-22.47-19.9-7.09,9.1L196,389.28C198.23,391.53,208.92,399.76,211.37,401.6Z"/><path class="cls-6" d="M189.52,365.66l14.69,30.73q13.46,10.67,27.13,14.74L248.15,400,240,388.34Z"/><path class="cls-6" d="M284.92,401.6c-1.23-2.08-2-3.32-3.25-5.37a52.76,52.76,0,0,1-3.27-5.87,54.31,54.31,0,0,0,5.9-4.8l22.47-19.9,7.09,9.1-13.57,14.52C298.06,391.53,287.37,399.76,284.92,401.6Z"/><path class="cls-6" d="M306.77,365.66l-14.68,30.73Q278.62,407.06,265,411.13L248.15,400l8.11-11.66Z"/><path class="cls-4" d="M247.86,417.58h-.53c-23-.21-45.82-13.75-68-40.26l6.14-5.12c20.57,24.62,41.4,37.2,61.9,37.38h.45c20.7,0,42.09-12.59,63.61-37.44l6.05,5.24C294.4,404.06,271,417.58,247.86,417.58Z"/><polygon class="cls-7" points="240.03 388.34 189.52 365.66 206.03 408.39 240.03 388.34"/><polygon class="cls-7" points="256.26 388.34 306.77 365.66 290.26 408.39 256.26 388.34"/><ellipse class="cls-8" cx="136.59" cy="225.31" rx="30.72" ry="35.62"/><ellipse class="cls-8" cx="363.41" cy="225.31" rx="30.72" ry="35.62"/><path class="cls-9" d="M173.27,114.84a36.68,36.68,0,0,0-36.68,36.68V265.89c0,17.7,51.53,94,111.64,98.71,44.48,3.51,115.18-70.35,115.18-98.71V151.52c0-37.29.29-36.68-36.68-36.68Z"/><path class="cls-10" d="M220.64,188.53a3.08,3.08,0,0,1-1-.06c-.29-.07-30-7.16-47.39,3.51-2,1.23-4.45-.24-5.5-3.27s-.28-6.49,1.7-7.71c19.42-11.95,50.43-4.53,51.74-4.21,2.24.55,3.94,3.61,3.79,6.83C223.81,186.33,222.42,188.3,220.64,188.53Z"/><path class="cls-10" d="M278.12,188.53a3.07,3.07,0,0,0,1-.06c.3-.07,30-7.16,47.4,3.51,2,1.23,4.45-.24,5.5-3.27s.28-6.49-1.71-7.71c-19.42-11.95-50.42-4.53-51.74-4.21-2.24.55-3.93,3.61-3.78,6.83C275,186.33,276.35,188.3,278.12,188.53Z"/><path class="cls-11" d="M250.47,314.33a57.46,57.46,0,0,1-31.18-9.47,4,4,0,0,1,4.78-6.49c1.07.78,24.88,17.69,52-.12a4,4,0,1,1,4.42,6.74A54,54,0,0,1,250.47,314.33Z"/><path class="cls-11" d="M273.84,263.15c0-2.6-3.65-5-7.67-6.72a37,37,0,0,1-12.85-9.94c-2.61-3-5.11-2.63-7.52.46a33.57,33.57,0,0,1-12.59,9.64c-3.75,1.74-7.05,4-7.05,6.56a9.79,9.79,0,0,0,9.26,9.77,16,16,0,0,0,29.16,0A9.79,9.79,0,0,0,273.84,263.15Z"/><rect class="cls-11" x="238.72" y="222.35" width="20.9" height="43.38" rx="10.45" ry="10.45"/><path class="cls-12" d="M221.09,228.45a3.72,3.72,0,0,1-3.66-3.09c-.64-3.71-4.76-10.72-15.76-10.72-13.9,0-16.74,9.56-16.85,10a3.72,3.72,0,0,1-7.2-1.9c1.38-5.36,8.18-15.51,24-15.51,13.86,0,21.69,8.75,23.09,16.89a3.72,3.72,0,0,1-3,4.3A3.55,3.55,0,0,1,221.09,228.45Z"/><path class="cls-12" d="M196.13,215.14a3.69,3.69,0,0,1-3.59-2.87l-2.08-9.14a3.69,3.69,0,0,1,7.2-1.64l2.08,9.14a3.69,3.69,0,0,1-2.78,4.42A3.91,3.91,0,0,1,196.13,215.14Z"/><path class="cls-12" d="M206.18,214.44a3.88,3.88,0,0,1-.82-.09,3.7,3.7,0,0,1-2.78-4.42l2.08-9.14a3.69,3.69,0,1,1,7.2,1.64l-2.08,9.14A3.69,3.69,0,0,1,206.18,214.44Z"/><path class="cls-12" d="M278.91,228.45a3.72,3.72,0,0,0,3.66-3.09c.64-3.71,4.76-10.72,15.76-10.72,13.9,0,16.74,9.56,16.85,10a3.72,3.72,0,0,0,7.2-1.9c-1.38-5.36-8.18-15.51-24.05-15.51-13.86,0-21.69,8.75-23.09,16.89a3.72,3.72,0,0,0,3,4.3A3.55,3.55,0,0,0,278.91,228.45Z"/><path class="cls-12" d="M303.87,215.14a3.69,3.69,0,0,0,3.59-2.87l2.08-9.14a3.69,3.69,0,1,0-7.2-1.64l-2.08,9.14a3.69,3.69,0,0,0,2.78,4.42A3.91,3.91,0,0,0,303.87,215.14Z"/><path class="cls-12" d="M293.82,214.44a3.88,3.88,0,0,0,.82-.09,3.7,3.7,0,0,0,2.78-4.42l-2.08-9.14a3.69,3.69,0,1,0-7.2,1.64l2.08,9.14A3.69,3.69,0,0,0,293.82,214.44Z"/><circle class="cls-13" cx="158.94" cy="143.6" r="36.49" transform="translate(-48.9 195.43) rotate(-56.1)"/><circle class="cls-13" cx="206.16" cy="115.17" r="36.49" transform="translate(-24.36 166.43) rotate(-41.73)"/><circle class="cls-13" cx="271.09" cy="111.78" r="48.99" transform="translate(0.36 224.43) rotate(-45)"/><circle class="cls-13" cx="334.23" cy="108.33" r="36.49" transform="translate(117.1 384.55) rotate(-69.79)"/><path class="cls-14" d="M425.81,122.26H74.19a11.48,11.48,0,0,1-11.48-11.48h0A11.47,11.47,0,0,1,74.19,99.31H425.81a11.47,11.47,0,0,1,11.48,11.47h0A11.48,11.48,0,0,1,425.81,122.26Z"/><path class="cls-14" d="M141.68,19.73H358.32a11.75,11.75,0,0,1,11.75,11.75V99.31a0,0,0,0,1,0,0H129.93a0,0,0,0,1,0,0V31.48A11.75,11.75,0,0,1,141.68,19.73Z"/><rect class="cls-12" x="129.93" y="74.93" width="240.15" height="24.38"/><path class="cls-15" d="M249.49,82.65l40.3-29.47a7.91,7.91,0,0,1,12.58,6.39V99.28l-32.05,0Z"/><path class="cls-15" d="M249.49,82.65l-40.3-29.47a7.91,7.91,0,0,0-12.58,6.39V99.28l32,0Z"/><rect class="cls-16" x="231.77" y="67.48" width="35.44" height="30.35" rx="9.73" ry="9.73"/></svg>