<svg id="Layer_1" data-name="Layer 1" xmlns="http://www.w3.org/2000/svg" viewBox="0 0 500 500"><defs><style>.cls-1{fill:#eff6f9;}.cls-2{fill:#f4d6b0;}.cls-3{fill:#e0bb94;}.cls-4{fill:#a7a9ac;}.cls-5{fill:#e6e7e8;}.cls-6{fill:#ffe1cc;}.cls-7{fill:#efd1bd;}.cls-8{fill:#9097a0;}.cls-9{fill:#acc4dd;}.cls-10{fill:#ffc7b6;}.cls-11{fill:#353d42;}.cls-12{fill:#dc9b80;}.cls-13{fill:#ef4136;}.cls-14{fill:#5c5d64;}</style></defs><title>Tawk_Avatar-Male</title><path class="cls-1" d="M250,485.66a177,177,0,1,1,177-177,177,177,0,0,1-177,177"/><path class="cls-2" d="M294.86,363.51v-32l-44.86,32-44.86-32v32c0,13.86-14.11,13.86-14.11,13.86l59,58.72,59-58.72S294.86,377.37,294.86,363.51Z"/><path class="cls-3" d="M294.86,331.5l-44.86,32-44.86-32v32c0,.45,0,.84-.08,1.27,24.59,11,44.94,12,44.94,12s20.35-.94,44.94-12c0-.43-.08-.82-.08-1.27Z"/><path class="cls-4" d="M316,380.15h-7.14l-19.05,21.52c-10.44,11.79-25.74,27.41-40.15,27.58a20.87,20.87,0,0,1-2.24-.1c16.24,17.37,36,31.27,51.16,49.73a177.26,177.26,0,0,0,94.05-65.47Z"/><path class="cls-4" d="M245.89,429c-13.41-2.19-25.91-16.19-35.73-27.28l-19-21.52H184l-77.25,32.41a177.21,177.21,0,0,0,190.85,66.63C282.2,460.61,262.16,446.63,245.89,429Z"/><path class="cls-5" d="M247.52,431.72c2,2.36,4.22,5.57,6.95,7.58l61.82-59.15-10.59-7.07L245,429C245.88,429.86,246.72,430.78,247.52,431.72Z"/><path class="cls-5" d="M184,380.15l10.59-7.07L306.7,476.37s-10.61,3.49-17.11,4.84Z"/><path class="cls-1" d="M250,485.66a177,177,0,1,1,177-177,177,177,0,0,1-177,177"/><path class="cls-6" d="M294.86,363.51v-32l-44.86,32-44.86-32v32c0,13.86-14.11,13.86-14.11,13.86l59,58.72,59-58.72S294.86,377.37,294.86,363.51Z"/><path class="cls-7" d="M294.86,331.5l-44.86,32-44.86-32v32c0,.45,0,.84-.08,1.27,24.59,11,44.94,12,44.94,12s20.35-.94,44.94-12c0-.43-.08-.82-.08-1.27Z"/><path class="cls-8" d="M316,380.15h-7.14l-19.05,21.52c-10.44,11.79-25.74,27.41-40.15,27.58a20.87,20.87,0,0,1-2.24-.1c16.24,17.37,36,31.27,51.16,49.73a177.26,177.26,0,0,0,94.05-65.47Z"/><path class="cls-8" d="M245.89,429c-13.41-2.19-25.91-16.19-35.73-27.28l-19-21.52H184l-77.25,32.41a177.21,177.21,0,0,0,190.85,66.63C282.2,460.61,262.16,446.63,245.89,429Z"/><path class="cls-9" d="M247.52,431.72c2,2.36,4.22,5.57,6.95,7.58l61.82-59.15-10.59-7.07L245,429C245.88,429.86,246.72,430.78,247.52,431.72Z"/><path class="cls-9" d="M184,380.15l10.59-7.07L306.7,476.37s-10.61,3.49-17.11,4.84Z"/><ellipse class="cls-10" cx="136.59" cy="221.65" rx="30.72" ry="35.62"/><ellipse class="cls-10" cx="363.41" cy="221.65" rx="30.72" ry="35.62"/><path class="cls-6" d="M173.27,99.31c-20.26,0-36.68,17.16-36.68,38.34V257.21c0,58.3,64,111.57,111.64,115.5,36.71,3,115.18-63.2,115.18-115.5V137.65c0-21.18-16.42-38.34-36.68-38.34Z"/><path class="cls-10" d="M278.73,255.21c0-3.14-4.39-6-9.25-8.11a44.42,44.42,0,0,1-15.48-12c-3.14-3.6-6.15-3.16-9.06.56a40.48,40.48,0,0,1-15.18,11.62c-4.52,2.1-8.49,4.87-8.49,7.91A11.79,11.79,0,0,0,232.43,267a19.26,19.26,0,0,0,35.14,0A11.79,11.79,0,0,0,278.73,255.21Z"/><path class="cls-11" d="M220.64,184.87a3.08,3.08,0,0,1-1-.06c-.29-.08-30-7.16-47.39,3.51-2,1.23-4.45-.24-5.5-3.28s-.28-6.48,1.7-7.7c19.42-12,50.43-4.54,51.74-4.21,2.24.55,3.94,3.6,3.79,6.83C223.81,182.67,222.42,184.64,220.64,184.87Z"/><path class="cls-11" d="M278.12,184.87a3.07,3.07,0,0,0,1-.06c.3-.08,30-7.16,47.4,3.51,2,1.23,4.45-.24,5.5-3.28s.28-6.48-1.71-7.7c-19.42-12-50.43-4.54-51.74-4.21-2.24.55-3.93,3.6-3.78,6.83C275,182.67,276.35,184.64,278.12,184.87Z"/><path class="cls-12" d="M250.47,310.67a57.42,57.42,0,0,1-31.18-9.47,4,4,0,0,1,4.78-6.49c1.07.78,24.88,17.69,52-.12a4,4,0,1,1,4.42,6.74A54,54,0,0,1,250.47,310.67Z"/><rect class="cls-10" x="234.67" y="206.03" width="28.66" height="52.29" rx="11.31" ry="11.31"/><path class="cls-11" d="M276.27,73.78H230a29.72,29.72,0,0,1-29.71-29.72h0A29.7,29.7,0,0,1,230,14.34h46.27A29.73,29.73,0,0,1,306,44.06h0a29.71,29.71,0,0,1-29.72,29.72Z"/><path class="cls-13" d="M262.55,44.06h-25.1A106.23,106.23,0,0,0,201,50.47a29.75,29.75,0,0,0,29,23.31h46.27a29.72,29.72,0,0,0,27.4-18.2c.39-.93.73-1.88,1-2.85A106.29,106.29,0,0,0,262.55,44.06Z"/><path class="cls-11" d="M262.55,51.9h-25.1A106.46,106.46,0,0,0,131,158.36v26.16a1.78,1.78,0,0,0,2,1.77c.59-.07,1.18-.12,1.72-.16a1.78,1.78,0,0,1,1.9,1.78V271.1a1.91,1.91,0,0,0,.06.48,25.23,25.23,0,0,0,1.43,4.05h0s6.86,24.08,17.74,37.83,9.18-35.94,2.52-47.87-10.67-8.8-10.67-20v-52a1.77,1.77,0,0,1,.12-.64c10.66-27.42,9.82-45.05,9.76-46v-4a33.66,33.66,0,0,1,27.85-33.16l6.85-1.21a18.86,18.86,0,0,1,21.3,13.06c1.81,5.91,9,11.84,21.2,12.33H264.6c10.22.59,20-6.42,21.84-12.33a18.86,18.86,0,0,1,21.3-13.06l3,.53a38.33,38.33,0,0,1,31.7,37.76.28.28,0,0,1,0,.09c-.05.93-.89,18.56,9.77,46a1.77,1.77,0,0,1,.12.64v52c0,11.23-4,8.11-10.67,20s-10.51,61.62.36,47.87,19.9-37.83,19.9-37.83h0a23.56,23.56,0,0,0,1.43-4.06,1.55,1.55,0,0,0,.07-.48V187.91a1.78,1.78,0,0,1,1.9-1.78c.54,0,1.13.09,1.72.16a1.78,1.78,0,0,0,2-1.77V158.36A106.46,106.46,0,0,0,262.55,51.9Z"/><path class="cls-14" d="M219.5,219.34a4.07,4.07,0,0,1-2.5-.81c-.82-.64-19.94-15.3-42-.41a4.25,4.25,0,0,1-4.94-.26,2.32,2.32,0,0,1,.34-3.83c27.12-18.3,51.38.51,51.62.71a2.3,2.3,0,0,1-.06,3.83A4.06,4.06,0,0,1,219.5,219.34Z"/><path class="cls-14" d="M325.31,219.34a4.07,4.07,0,0,1-2.5-.81c-.82-.64-19.94-15.3-42-.41a4.23,4.23,0,0,1-4.93-.26,2.32,2.32,0,0,1,.34-3.83c27.12-18.3,51.37.51,51.62.71a2.3,2.3,0,0,1-.07,3.83A4,4,0,0,1,325.31,219.34Z"/></svg>