<svg id="Layer_1" data-name="Layer 1" xmlns="http://www.w3.org/2000/svg" viewBox="0 0 500 500"><defs><style>.cls-1{fill:#eff6f9;}.cls-2{fill:#ae8162;}.cls-3{fill:#9b6b4b;}.cls-4{fill:#9b6c4c;}.cls-5{fill:#dc9b80;}.cls-6{fill:#272223;}.cls-7{fill:#fff;}.cls-8{fill:#dae8f2;}.cls-9{fill:#808285;}</style></defs><title>Tawk_Avatar-Male</title><path class="cls-1" d="M250,467.39a177,177,0,1,1,177-177,177,177,0,0,1-177,177"/><path class="cls-2" d="M294.86,345.24v-32l-44.86,32-44.86-32v32c0,13.86-14.11,13.86-14.11,13.86l59,58.72,59-58.72S294.86,359.1,294.86,345.24Z"/><path class="cls-3" d="M294.86,313.24l-44.86,32-44.86-32v32c0,.45,0,.85-.08,1.27,24.59,11,44.94,12,44.94,12s20.35-.94,44.94-12c0-.42-.08-.82-.08-1.27Z"/><ellipse class="cls-4" cx="135.7" cy="202.36" rx="30.72" ry="35.62"/><ellipse class="cls-4" cx="362.51" cy="202.36" rx="30.72" ry="35.62"/><path class="cls-2" d="M172.37,91.89a36.68,36.68,0,0,0-36.67,36.68V242.93c0,62.64,71.55,110.66,111.64,110.49,38.91-.16,115.17-47.85,115.17-110.49V128.57a36.68,36.68,0,0,0-36.67-36.68Z"/><path class="cls-3" d="M277.83,235.92c0-3.14-4.39-6-9.24-8.11-6.06-2.64-11.14-7-15.49-12-3.14-3.6-6.15-3.16-9,.56A40.74,40.74,0,0,1,228.87,228c-4.53,2.09-8.5,4.87-8.5,7.91a11.8,11.8,0,0,0,11.16,11.77,19.27,19.27,0,0,0,35.15,0A11.79,11.79,0,0,0,277.83,235.92Z"/><path class="cls-5" d="M249.58,291.38a57.57,57.57,0,0,1-31.19-9.47,4,4,0,0,1,4.79-6.49c1.06.78,24.87,17.69,52-.12a4,4,0,1,1,4.42,6.74A54,54,0,0,1,249.58,291.38Z"/><rect class="cls-3" x="234.78" y="186.74" width="28.66" height="52.29" rx="11.31" ry="11.31"/><path class="cls-6" d="M353.82,95.42q-2.47-4.62-5.33-9a118.66,118.66,0,0,0-198.77,0q-2.85,4.35-5.33,9a119,119,0,0,0-6.67,96.84c.15-54.08,2.9-67.08,16.6-89.93,24.77,15.56,58.11,25.1,94.78,25.1s70-9.54,94.79-25.1c6.94,14.27,15.81,41.27,16.6,89.93a119,119,0,0,0-6.67-96.84Z"/><path class="cls-6" d="M156.2,161.67s-2.82,5.26-2.56,20.13c.13,6.87.68,14.21,1.24,20.13.64,6.7,6.73,11.77,13.93,11.62l50-1.05c7.43-.16,13.36-5.83,13.36-12.78v-24.1S231,162,207.26,160.42,156.2,161.67,156.2,161.67Z"/><path class="cls-6" d="M342,161.67s2.82,5.26,2.56,20.13c-.13,6.87-.68,14.21-1.24,20.13-.64,6.7-6.73,11.77-13.93,11.62l-50-1.05c-7.43-.16-13.36-5.83-13.36-12.78v-24.1S267.23,162,291,160.42,342,161.67,342,161.67Z"/><polygon class="cls-6" points="132.26 172.05 156.2 161.67 162.5 176.3 134.44 181.87 132.26 172.05"/><polygon class="cls-6" points="365.94 172.05 342 161.67 335.71 176.3 363.77 181.87 365.94 172.05"/><path class="cls-6" d="M228.18,182.73s24.1-4.85,43.43,1.47l3.31-7.4s-18.67-14.66-49.84-3Z"/><path class="cls-7" d="M250,467.39a177,177,0,0,0,46.33-6.14H203.68A177.34,177.34,0,0,0,250,467.39Z"/><path class="cls-7" d="M210.16,383.41l-19-21.53H184L121.2,388.22H215A56.5,56.5,0,0,1,210.16,383.41Z"/><path class="cls-7" d="M168.29,447.43H331.7a176.13,176.13,0,0,0,24.94-15.79H143.37A176.83,176.83,0,0,0,168.29,447.43Z"/><path class="cls-7" d="M316,361.88h-7.14l-19.05,21.53a56.5,56.5,0,0,1-4.86,4.81H376.7Z"/><path class="cls-7" d="M387.3,402H112.69a176.14,176.14,0,0,0,14.51,15.78H372.8A176,176,0,0,0,387.3,402Z"/><path class="cls-8" d="M392.66,395.14l-16-6.92H285a53.22,53.22,0,0,1-70,0H121.2l-14.48,6.07q2.88,4,6,7.75H387.3C389.14,399.78,390.93,397.49,392.66,395.14Z"/><path class="cls-8" d="M143.37,431.64H356.64a177.39,177.39,0,0,0,16.16-13.82H127.2A176,176,0,0,0,143.37,431.64Z"/><path class="cls-8" d="M203.68,461.25h92.65a175.41,175.41,0,0,0,35.37-13.82H168.29A175.59,175.59,0,0,0,203.68,461.25Z"/><path class="cls-9" d="M305.44,354.81l-19,17.87a53.2,53.2,0,0,1-72.92,0l-19-17.87L184,361.88l21.41,21.57a62.86,62.86,0,0,0,89.24,0L316,361.88Z"/></svg>