<svg id="Layer_1" data-name="Layer 1" xmlns="http://www.w3.org/2000/svg" viewBox="0 0 500 500"><defs><style>.cls-1{fill:#eff6f9;}.cls-2{fill:#ffe1cc;}.cls-3{fill:#efd1bd;}.cls-4{fill:#27aae1;}.cls-5{fill:#1b75bc;}.cls-6{fill:#e6e7e8;}.cls-7{fill:#ffc7b6;}.cls-8{fill:#5c5d64;}.cls-9{fill:#353d42;}.cls-10{fill:#dc9b80;}.cls-11,.cls-13{fill:#fff;}.cls-12{fill:#414042;}.cls-13{opacity:0.4;}</style></defs><title>Tawk_Avatar-Male</title><path class="cls-1" d="M250,474.57a177,177,0,1,1,177-177,177,177,0,0,1-177,177"/><path class="cls-2" d="M294.86,352.42v-32l-44.86,32-44.86-32v32c0,13.86-14.11,13.86-14.11,13.86L250,425l59-58.72S294.86,366.28,294.86,352.42Z"/><path class="cls-3" d="M294.86,320.42l-44.86,32-44.86-32v32c0,.45,0,.85-.08,1.27,24.59,11,44.94,12,44.94,12s20.35-.94,44.94-12c0-.42-.08-.82-.08-1.27Z"/><path class="cls-4" d="M250,474.57a176.7,176.7,0,0,0,142.66-72.25L316,369.06h-7.14l-19.05,21.52a53.21,53.21,0,0,1-79.68,0l-19-21.52H184l-77.25,32.41A176.71,176.71,0,0,0,250,474.57"/><path class="cls-5" d="M272.89,389.14a53.26,53.26,0,0,1-52.58-3.88c-1.86,4.23-4.58,8.21-7,12.11a62.92,62.92,0,0,0,66.91,4.13C277.77,397.36,275.51,393.15,272.89,389.14Z"/><path class="cls-6" d="M212.92,395.9c1.23-2.08,2-3.32,3.24-5.37a52.84,52.84,0,0,0,3.28-5.87,53.36,53.36,0,0,1-5.9-4.8L191.07,360l-7.1,9.1,13.58,14.52C199.77,385.83,210.46,394.06,212.92,395.9Z"/><path class="cls-6" d="M191.07,360l14.68,30.74q13.45,10.65,27.13,14.73l16.81-11.13-8.12-11.66Z"/><path class="cls-6" d="M286.46,395.9c-1.23-2.08-2-3.32-3.24-5.37a51.28,51.28,0,0,1-3.28-5.87,53.36,53.36,0,0,0,5.9-4.8L308.31,360l7.1,9.1-13.58,14.52C299.61,385.83,288.92,394.06,286.46,395.9Z"/><path class="cls-6" d="M308.31,360,293.63,390.7q-13.45,10.65-27.14,14.73l-16.8-11.13,8.12-11.66Z"/><ellipse class="cls-7" cx="136.59" cy="209.49" rx="30.72" ry="35.62"/><ellipse class="cls-7" cx="363.41" cy="209.49" rx="30.72" ry="35.62"/><path class="cls-2" d="M171.46,85.35c-20.25,0-34.87,30.09-34.87,50.35V250.06c0,17.7,51.53,105.75,111.64,110.49,44.48,3.51,115.18-82.12,115.18-110.49V135.7c0-37.29.29-36.68-36.68-36.68Z"/><path class="cls-8" d="M220.5,217.15a3.49,3.49,0,0,1-2.5-1.05c-.81-.83-19.94-19.74-42-.53a3.5,3.5,0,1,1-4.6-5.27c27.12-23.62,51.38.66,51.62.91a3.49,3.49,0,0,1-2.51,5.94Z"/><path class="cls-8" d="M326.31,217.15a3.49,3.49,0,0,1-2.5-1.05c-.82-.83-19.94-19.74-42-.53a3.5,3.5,0,1,1-4.6-5.27c27.12-23.62,51.37.66,51.62.91a3.5,3.5,0,0,1-2.51,5.94Z"/><path class="cls-7" d="M278.73,243.05c0-3.14-4.39-6-9.24-8.11-6.07-2.64-11.14-7-15.49-12-3.14-3.6-6.15-3.16-9.06.56a40.58,40.58,0,0,1-15.18,11.62c-4.52,2.09-8.49,4.87-8.49,7.91a11.79,11.79,0,0,0,11.16,11.77,19.26,19.26,0,0,0,35.14,0A11.79,11.79,0,0,0,278.73,243.05Z"/><path class="cls-9" d="M220.64,179.08a2.64,2.64,0,0,1-1-.06c-.29-.07-30-7.16-47.39,3.52-2,1.22-4.45-.25-5.5-3.28s-.28-6.49,1.7-7.71c19.42-12,50.43-4.53,51.74-4.21,2.24.55,3.94,3.61,3.79,6.83C223.81,176.89,222.42,178.85,220.64,179.08Z"/><path class="cls-9" d="M278.12,179.08a2.62,2.62,0,0,0,1-.06c.3-.07,30-7.16,47.4,3.52,2,1.22,4.45-.25,5.5-3.28s.28-6.49-1.71-7.71c-19.42-12-50.42-4.53-51.74-4.21-2.24.55-3.93,3.61-3.78,6.83C275,176.89,276.35,178.85,278.12,179.08Z"/><path class="cls-10" d="M250.47,298.51A57.56,57.56,0,0,1,219.29,289a4,4,0,0,1,4.78-6.49c1.07.78,24.88,17.69,52-.12a4,4,0,1,1,4.42,6.74A54,54,0,0,1,250.47,298.51Z"/><rect class="cls-7" x="234.67" y="193.87" width="28.66" height="52.29" rx="11.31" ry="11.31"/><path class="cls-9" d="M361,89.82q-2.55-4.77-5.5-9.28l-.1.23c-20.35-28.09-57.6-42.18-95.08-44-10.84-5.77-7-11.35-7-11.35-78.5,6.5-107.11,46-107.11,46q-3.26,5-6.1,10.3c-10.19,19.08-10.71,44.33-10.71,67.48,0,16.51,1.8,32.3,7.19,46.94,12.59,3.45,12.15-19.26,15.82-29.9h0v0c1.34-3.88,2.49-7.84,3.48-11.87,5.92-14.85,13.56-12.7,18.92-21,6.5-10-21.45-36.18-21.45-36.18,18.46-.76,171,9.57,190,11l-.55.4s-25.62,4.92-19.12,14.92c4.55,7,14.19,16.35,19.57,25.06C346,166,341,204.93,363.29,196.22c4.86-13.19,5.8-27.45,5.8-42.34C369.09,133,370.14,107,361,89.82Z"/><path class="cls-4" d="M249.4,411.88h-.52c-23-.2-45.83-13.75-68-40.26L187,366.5c20.58,24.62,41.41,37.2,61.91,37.38h.45c20.69,0,42.09-12.59,63.6-37.44l6.05,5.24C296,398.36,272.52,411.88,249.4,411.88Z"/><polygon class="cls-11" points="241.57 382.64 191.07 359.96 207.57 402.69 241.57 382.64"/><polygon class="cls-11" points="257.81 382.64 308.31 359.96 291.81 402.69 257.81 382.64"/><path class="cls-9" d="M324.27,53.89c28.13,21,60.35,31.66,60.35,31.66C319.07,149.52,174,106.9,174,106.9l-20.6-9.65,6-12.64,82.75-6Z"/><path class="cls-9" d="M309,46.75S356.9,61,365.4,59.69c0,0-.83,23.33-28.75,25-13.64.81-28.75-25.5-28.75-25.5Z"/><path class="cls-12" d="M141.38,190.34,156.1,184l-2.56,16.39-19.21,3.81h0A12.2,12.2,0,0,1,141.38,190.34Z"/><path class="cls-12" d="M356.62,190.34,341.9,184,344.43,199l19.24,5.12h0A12.2,12.2,0,0,0,356.62,190.34Z"/><path class="cls-12" d="M231,194.11a37.11,37.11,0,0,1,.41,10.36c6.6-1,21.88-2.54,35.84.83a22.73,22.73,0,0,1,1.82-9.45C262.1,192.69,249,189,231,194.11Z"/><path class="cls-12" d="M235.53,200v-2l0-.3c0-.68-1.71-16.6-28.11-18.4-23.74-1.62-50.54,1.14-51.67,1.26h0A3.49,3.49,0,0,0,153,182.3h0c-.23.43-1.68,3.38-2.48,10.18l-.27,0,.15,1.1q-.07.82-.15,1.71l.36-.21,3.87,28.26c1.32,9.63,10.23,16.89,20.72,16.89h33.6c9.48,0,17.79-5.93,20.2-14.41l7.29-25.7Zm-14.17,24c-1.49,5.27-6.65,8.95-12.54,8.95h-33.6c-6.52,0-12.05-4.51-12.87-10.49l-4.23-30.86a37.87,37.87,0,0,1,.51-4.35c6.88-.62,29-2.35,48.29-1s21.43,10.86,21.61,11.92v.62Z"/><path class="cls-12" d="M261.87,200.15l7.3,25.7c2.41,8.48,10.72,14.41,20.2,14.41H323c10.49,0,19.4-7.26,20.72-16.89l3.87-28.26.36.21q-.07-.88-.15-1.71l.15-1.1-.27,0c-.8-6.8-2.25-9.75-2.48-10.18h0a3.49,3.49,0,0,0-2.72-1.82h0c-1.12-.12-27.92-2.88-51.66-1.26-26.4,1.8-28.06,17.72-28.12,18.4V200Zm7.79-1.4v-.62c.18-1.06,2.28-10.61,21.61-11.92s41.41.41,48.29,1a37.33,37.33,0,0,1,.5,4.35l-4.22,30.86c-.82,6-6.35,10.49-12.87,10.49h-33.6c-5.89,0-11.05-3.68-12.54-8.95Z"/><path class="cls-13" d="M221.36,224c-1.49,5.27-6.65,8.95-12.54,8.95h-33.6c-6.52,0-12.05-4.51-12.87-10.49l-4.23-30.86a37.87,37.87,0,0,1,.51-4.35c6.88-.62,29-2.35,48.29-1s21.43,10.86,21.61,11.92v.62Z"/><path class="cls-13" d="M269.66,198.75v-.62c.18-1.06,2.28-10.61,21.61-11.92s41.41.41,48.29,1a37.33,37.33,0,0,1,.5,4.35l-4.22,30.86c-.82,6-6.35,10.49-12.87,10.49h-33.6c-5.89,0-11.05-3.68-12.54-8.95Z"/></svg>