<svg id="Layer_1" data-name="Layer 1" xmlns="http://www.w3.org/2000/svg" viewBox="0 0 500 500"><defs><style>.cls-1{fill:#eff6f9;}.cls-2{fill:#f4d6b0;}.cls-3{fill:#e2c09c;}.cls-4{fill:#e0bb94;}.cls-5{fill:#e6e7e8;}.cls-6{fill:#bcbec0;}.cls-7{fill:#808285;}.cls-8{fill:#facfaf;}.cls-9{fill:#5c5d64;}.cls-10{fill:#fae0bb;}.cls-11{fill:#facdab;}.cls-12{fill:#f7941d;}.cls-13{fill:#dc9b80;}.cls-14{fill:#fbb040;}.cls-15{fill:#fff;}.cls-16{fill:#939598;}</style></defs><title>Tawk_Avatar-Male</title><path class="cls-1" d="M250,477.18a177,177,0,1,1,177-177,177,177,0,0,1-177,177"/><path class="cls-2" d="M294.51,355V323l-44.86,32-44.86-32v32c0,13.86-14.11,13.86-14.11,13.86l59,58.72,59-58.72S294.51,368.89,294.51,355Z"/><path class="cls-3" d="M290.24,359.05c-.43.12-6.41,1.16-5.68,6.33a5.74,5.74,0,0,0,2.59,2.71c1.84.86,1.91.42,2.57,1.28s1.79-.06,2.38-.28a2.5,2.5,0,0,0,1.46-2.1c-.08-.91-.72-1.49.4-2.21S294.18,358,290.24,359.05ZM287.46,366a1.19,1.19,0,1,1,1.19-1.19A1.18,1.18,0,0,1,287.46,366Zm2,.46c-.37-.69.3-1.65.3-1.65-.2-.64,1.49.5,1.49,1.09S289.8,367.12,289.42,366.43Zm1.49-2.49a1.19,1.19,0,1,1,1.19-1.18A1.18,1.18,0,0,1,290.91,363.94Z"/><path class="cls-3" d="M224.51,364.58l-2.62,4.54a.75.75,0,0,0,.65,1.13h5.24c.58,0,.53-.57.24-1.07l-2.21-4.6A.75.75,0,0,0,224.51,364.58Z"/><path class="cls-3" d="M210.45,366.3l1.09,3.38a.71.71,0,0,0,.67.48h3.55a.71.71,0,0,1,.42,1.28l-2.87,2.08a.71.71,0,0,0-.26.79l1.1,3.37a.71.71,0,0,1-1.09.79l-2.87-2.08a.71.71,0,0,0-.83,0l-2.87,2.08a.7.7,0,0,1-1.08-.79l1.1-3.37a.71.71,0,0,0-.26-.79l-2.87-2.08a.71.71,0,0,1,.41-1.28h3.55a.69.69,0,0,0,.67-.48l1.1-3.38A.7.7,0,0,1,210.45,366.3Z"/><path class="cls-3" d="M239.37,394.27c.94-1.31,3.75-16.56,10-13.31s5,5.06,8.59,3.19,2.88-1.91,4.75-3.64,2.13-2.86,3.06-1l.94,1.88,4.13-.75,1.68-.32s.38-1.25,1.32-.31a8.12,8.12,0,0,1,1.5,2.63l-1.69,3.76L252,397.15l-2.66-.21-8.16-.61Z"/><path class="cls-4" d="M294.51,323l-44.86,32-44.86-32v32c0,.45,0,.84-.08,1.26,24.59,11,44.94,12,44.94,12s20.35-.94,44.94-12c0-.42-.08-.81-.08-1.26Z"/><path class="cls-5" d="M315.68,371.67h0l-10.59-7.07-19,17.86a51.6,51.6,0,0,1-6.62,5.3,30.88,30.88,0,0,0,1.43,6.05c.55,1.95,1.15,3.89,1.76,5.82a53.21,53.21,0,0,1-67.58-1.26c1.53-3.55,3.15-7.07,4.72-10.6a52.65,52.65,0,0,1-6.63-5.31l-19-17.86-10.59,7.07h0l-77.25,32.4a177,177,0,0,0,285.94.86Z"/><circle class="cls-6" cx="261.6" cy="419.89" r="3.33"/><circle class="cls-6" cx="261.6" cy="442.36" r="3.33"/><circle class="cls-6" cx="261.6" cy="464.82" r="3.33"/><polygon class="cls-6" points="250.65 396.9 250.65 477.18 253.35 477.18 253.35 396.15 250.65 396.9"/><path class="cls-7" d="M282.05,401c-1-3.21-2-6.43-2.85-9.69a24.3,24.3,0,0,1-.62-2.91,53.22,53.22,0,0,1-57.92-.05c-1.93,4.34-3.94,8.66-5.75,13a63,63,0,0,0,67.65,1.16C282.39,402,282.21,401.48,282.05,401Z"/><ellipse class="cls-8" cx="137.24" cy="207.77" rx="30.72" ry="35.62"/><circle class="cls-9" cx="129.41" cy="226.57" r="9.58"/><ellipse class="cls-8" cx="364.06" cy="207.77" rx="30.72" ry="35.62"/><circle class="cls-9" cx="370.16" cy="226.57" r="9.58"/><path class="cls-10" d="M173.92,85.43c-20.26,0-36.68,17.16-36.68,38.34V243.32c0,58.31,64,111.58,111.64,115.51,36.71,3,115.18-63.21,115.18-115.51V123.77c0-21.18-16.42-38.34-36.68-38.34Z"/><path class="cls-9" d="M218.33,212.91a4,4,0,0,1-4-3.34c-.69-4-5.15-11.61-17.06-11.61-15.07,0-18.14,10.35-18.26,10.79a4.06,4.06,0,0,1-4.94,2.83,4,4,0,0,1-2.86-4.88c1.5-5.81,8.87-16.81,26.06-16.81,15,0,23.49,9.49,25,18.3a4,4,0,0,1-4,4.72Z"/><path class="cls-9" d="M281,212.91a4.23,4.23,0,0,1-.7-.06,4,4,0,0,1-3.28-4.66c1.52-8.81,10-18.3,25-18.3,17.19,0,24.56,11,26.06,16.81a4,4,0,0,1-7.8,2C320.11,208.22,317,198,302,198c-11.91,0-16.37,7.59-17.07,11.61A4,4,0,0,1,281,212.91Z"/><path class="cls-11" d="M279.38,241.33c0-3.14-4.39-6-9.25-8.11a44.65,44.65,0,0,1-15.48-12c-3.14-3.6-6.15-3.17-9.06.56a40.68,40.68,0,0,1-15.18,11.62c-4.52,2.09-8.49,4.87-8.49,7.91a11.79,11.79,0,0,0,11.16,11.77,19.26,19.26,0,0,0,35.14,0A11.79,11.79,0,0,0,279.38,241.33Z"/><path class="cls-12" d="M221.29,171a2.64,2.64,0,0,1-1-.06c-.29-.07-30-7.15-47.39,3.52-2,1.23-4.45-.24-5.5-3.28s-.29-6.48,1.7-7.71c19.42-11.95,50.43-4.53,51.74-4.21,2.24.55,3.94,3.61,3.79,6.84C224.46,168.79,223.07,170.75,221.29,171Z"/><path class="cls-12" d="M278.77,171a2.63,2.63,0,0,0,1-.06c.3-.07,30-7.15,47.4,3.52,2,1.23,4.45-.24,5.5-3.28s.28-6.48-1.71-7.71c-19.42-11.95-50.43-4.53-51.74-4.21-2.24.55-3.94,3.61-3.78,6.84C275.6,168.79,277,170.75,278.77,171Z"/><path class="cls-13" d="M251.12,296.78a57.65,57.65,0,0,1-31.19-9.46,4,4,0,0,1,4.79-6.49c1.07.78,24.88,17.69,52-.12a4,4,0,1,1,4.42,6.74A54,54,0,0,1,251.12,296.78Z"/><rect class="cls-11" x="235.32" y="192.15" width="28.66" height="52.29" rx="11.31" ry="11.31"/><path class="cls-12" d="M180.89,93.75s-6.17,12.41-22.17,21.74-11.33,33.9-10.67,50.28-10.81,35.72-10.81,35.72-18.59-108,25.11-118.32C162.35,83.17,186.39,78,180.89,93.75Z"/><path class="cls-12" d="M339,83.18l-.4-.08c8.93-27.58-28.59-43.61-28.59-43.61-86-38.66-157.35.81-157.35,10,0,2.67,5.83,5.7,5,8-11,31.34,1.75,31.92,1.75,31.92,99.64,23.34,143.84,17.18,162.1,10.66l11.27-9.47-4.61,6.68a5.86,5.86,0,0,0,.6,7.43,64.66,64.66,0,0,0,13.85,10.78c16,9.34,11.33,33.9,10.66,50.28s10.81,35.72,10.81,35.72S382.75,93.52,339,83.18Z"/><path class="cls-14" d="M185.37,86l-2-.33c0-.32,5.09-31.92-7.67-43.08L177,41.07c5.75,5,8.89,14.15,9.34,27.1A100.4,100.4,0,0,1,185.37,86Z"/><path class="cls-14" d="M201.19,89.25l-1.94-.51c.09-.33,8.48-33.09,0-53.7l1.85-.76c4.56,11.12,4.32,25.49,3.32,35.58A140.77,140.77,0,0,1,201.19,89.25Z"/><path class="cls-14" d="M219.86,93.4l-1.94-.48c.11-.47,11.44-46.7,1.83-59.84l1.61-1.18C231.52,45.79,220.34,91.46,219.86,93.4Z"/><path class="cls-14" d="M248,95.61l-2-.24c0-.13,1.63-13.72,2.1-28.17.78-23.87-2-31.65-4.46-34l1.37-1.45C254.5,40.68,248.31,93.37,248,95.61Z"/><path class="cls-14" d="M272.35,94.77l-1.92-.56c.11-.39,11.45-39.61,3.25-54.4l1.75-1C284,54.36,272.83,93.13,272.35,94.77Z"/><path class="cls-14" d="M290.07,97.68l-1.7-1.05C288.52,96.38,304,71,299.9,46.82l2-.33C306.05,71.41,290.23,97.42,290.07,97.68Z"/><path class="cls-14" d="M311.66,97.49l-1.88-.67c.09-.25,9.19-25.95,8.77-39l2-.07C321,71.19,312,96.43,311.66,97.49Z"/><path class="cls-12" d="M341.71,259.43c-7.9,16.09-22.18,31.74-42.34,30.73-10.08-.5,1.91-14.61-8.25-20.64-7.54-4.47-73.4-4.47-80.94,0-10.16,6,1.83,20.14-8.25,20.64-20.16,1-34.44-14.64-42.35-30.73-7.51-15.29-22.81-20.66-22.81-20.66s-.17,30.8,16.14,55.06c24.3,36.16,57.1,55.92,78,65.59a48.38,48.38,0,0,0,6.06,2.31l-.06.15a50.3,50.3,0,0,0,27.46,0l-.06-.15a48.38,48.38,0,0,0,6.06-2.31c20.91-9.67,53.71-29.43,78-65.59,16.31-24.26,16.14-55.06,16.14-55.06S349.23,244.14,341.71,259.43ZM285,306.19c0,2.67-12.83,11.67-25.66,12,0,0-.79-1.55-1.67-6.67a3.87,3.87,0,0,0-2.75-3.47l0-.12c-4.55-1.41-10.76-.81-11.38,3.59-.72,5.14-1.67,6.67-1.67,6.67-12.83-.33-25.66-9.33-25.66-12s-.67-23,0-28.71c.42-3.6,30.47-.37,34.38-.83,3.91.46,34-2.77,34.38.83C285.7,283.19,285,303.52,285,306.19Z"/><polygon class="cls-15" points="250 396.9 191.38 362.56 217.93 418.15 250 396.9"/><polygon class="cls-15" points="250 396.9 308.62 362.56 282.07 418.15 250 396.9"/><path class="cls-7" d="M158.46,430.45H137.91a4.92,4.92,0,0,1-4.93-4.93v-9.27a4.92,4.92,0,0,1,4.93-4.93h20.55a4.93,4.93,0,0,1,4.93,4.93v9.27a4.92,4.92,0,0,1-4.93,4.93Zm-20.55-16.13a2,2,0,0,0-.95.25,2,2,0,0,0-1,1.68v9.27a1.91,1.91,0,0,0,1.93,1.93h20.55a1.91,1.91,0,0,0,1.93-1.93v-9.27a1.93,1.93,0,0,0-1.93-1.93Z"/><rect class="cls-16" x="136.98" y="377.59" width="22.41" height="38.7" rx="2.18" ry="2.18"/><path class="cls-16" d="M159.39,427.67a2.18,2.18,0,0,0-2.18-2.18H139.16a2.18,2.18,0,0,0-2.18,2.18v9a177.51,177.51,0,0,0,22.41,15.79Z"/><path class="cls-7" d="M360.77,430.45H340.22a4.92,4.92,0,0,1-4.93-4.93v-9.27a4.92,4.92,0,0,1,4.93-4.93h20.55a5,5,0,0,1,4.93,4.93v9.27a4.93,4.93,0,0,1-4.93,4.93Zm-20.55-16.13a2,2,0,0,0-1,.25,1.92,1.92,0,0,0-1,1.68v9.27a1.91,1.91,0,0,0,1.93,1.93h20.55a1.93,1.93,0,0,0,1.93-1.93v-9.27a1.95,1.95,0,0,0-1.93-1.93Z"/><rect class="cls-16" x="339.29" y="377.59" width="22.41" height="38.7" rx="2.18" ry="2.18"/><path class="cls-16" d="M359.51,425.49h-18a2.17,2.17,0,0,0-2.18,2.18v25.14a176.39,176.39,0,0,0,22.4-15.65v-9.49A2.17,2.17,0,0,0,359.51,425.49Z"/><path class="cls-3" d="M168.74,211.15l.93,2.87a.62.62,0,0,0,.57.42h3a.6.6,0,0,1,.35,1.08l-2.45,1.78a.59.59,0,0,0-.21.67l.93,2.87a.6.6,0,0,1-.92.67l-2.45-1.78a.6.6,0,0,0-.7,0l-2.44,1.78a.6.6,0,0,1-.93-.67l.94-2.87a.6.6,0,0,0-.22-.67l-2.45-1.78a.6.6,0,0,1,.36-1.08h3a.6.6,0,0,0,.57-.42l.93-2.87A.6.6,0,0,1,168.74,211.15Z"/></svg>